<?xml version="1.0" ?><svg height="1367.0px" viewBox="0 0 3928.0 1367.0" width="3928.0px" xmlns="http://www.w3.org/2000/svg" xmlns:xlink="http://www.w3.org/1999/xlink"><g transform="translate(20, 20)"><g transform="translate(-0.0, -0.0)">
    <!-- Generator: Sketch Beta 48 (47232) - http://www.bohemiancoding.com/sketch -->
    <title>backButton</title>
    <desc>Created with Sketch Beta.</desc>
    <defs/>
    <g fill="none" fill-rule="evenodd" id="uid_0" stroke="none" stroke-width="1">
        <g fill-rule="nonzero" id="uid_1" transform="translate(16.000000, 15.000000) scale(-1, 1) rotate(-180.000000) translate(-16.000000, -15.000000) translate(0.000000, -0.000000)">
            <g id="uid_0" transform="translate(16.000000, 15.000000) scale(-1, 1) translate(-16.000000, -15.000000) ">
                <g id="uid_2">
                    <path d="M30.8452,13.2359 L16.7992,0.2909 C16.3542,-0.1201 15.6572,-0.0931 15.2452,0.3549 C14.8332,0.8009 14.8622,1.4969 15.3092,1.9089 L27.2832,12.9449 L1.1002,12.9449 C0.4922,12.9449 0.0002,13.4379 0.0002,14.0449 C0.0002,14.6529 0.4922,15.1449 1.1002,15.1449 L27.2882,15.1449 L14.8072,26.6819 C14.3622,27.0939 14.3342,27.7899 14.7462,28.2359 C14.9632,28.4709 15.2582,28.5889 15.5542,28.5889 C15.8222,28.5889 16.0892,28.4919 16.3012,28.2969 L30.8472,14.8529 C31.0722,14.6449 31.2002,14.3509 31.1992,14.0439 C31.1992,13.7369 31.0722,13.4439 30.8452,13.2359" fill="#FFFFFF" id="uid_3" opacity="0.664628623"/>
                    <path d="M30.8452,14.2359 L16.7992,1.2909 C16.3542,0.8799 15.6572,0.9069 15.2452,1.3549 C14.8332,1.8009 14.8622,2.4969 15.3092,2.9089 L27.2832,13.9449 L1.1002,13.9449 C0.4922,13.9449 0.0002,14.4379 0.0002,15.0449 C0.0002,15.6529 0.4922,16.1449 1.1002,16.1449 L27.2882,16.1449 L14.8072,27.6819 C14.3622,28.0939 14.3342,28.7899 14.7462,29.2359 C14.9632,29.4709 15.2582,29.5889 15.5542,29.5889 C15.8222,29.5889 16.0892,29.4919 16.3012,29.2969 L30.8472,15.8529 C31.0722,15.6449 31.2002,15.3509 31.1992,15.0439 C31.1992,14.7369 31.0722,14.4439 30.8452,14.2359" fill="#000000" id="uid_4"/>
                </g>
            </g>
        </g>
    </g>
</g></g><g transform="translate(20, 70.0)"><g transform="translate(-0.0, -0.0)">
    <!-- Generator: Sketch Beta 48 (47232) - http://www.bohemiancoding.com/sketch -->
    <title>Artboard 6</title>
    <desc>Created with Sketch Beta.</desc>
    <defs/>
    <g fill="none" fill-rule="evenodd" id="uid_5" stroke="none" stroke-width="1">
        <g id="uid_6">
            <g id="uid_7">
                <g id="uid_8">
                    <circle cx="16.5" cy="16.5" fill="#A080E1" id="uid_9" r="16.5"/>
                    <path d="M13.6561151,20.8148031 L23.5998454,8.93711661 C24.1316312,8.30190377 25.0776706,8.2180596 25.7128834,8.74984541 C26.3480962,9.28163123 26.4319404,10.2276706 25.9001546,10.8628834 L13.7424024,25.3851969 L7.13700984,18.0744783 C6.58162638,17.4597908 6.6297018,16.5112609 7.24438929,15.9558774 C7.85907679,15.4004939 8.80760671,15.4485694 9.36299016,16.0632569 L13.6561151,20.8148031 Z" fill="#FFFFFF" fill-rule="nonzero" id="uid_10"/>
                </g>
            </g>
        </g>
    </g>
</g></g><g transform="translate(20, 123.0)"><g transform="translate(-0.0, -0.0)">
    <!-- Generator: Sketch Beta 48 (47232) - http://www.bohemiancoding.com/sketch -->
    <title>ic_close_24px</title>
    <desc>Created with Sketch Beta.</desc>
    <defs/>
    <g fill="none" fill-rule="evenodd" id="uid_11" stroke="none" stroke-width="1" transform="translate(-60.000000, -75.000000)">
        <g fill="#FFFFFF" fill-rule="nonzero" id="uid_12" transform="translate(60.000000, 75.000000)">
            <polygon id="uid_13" points="20 2.01428571 17.9857143 0 10 7.98571429 2.01428571 0 0 2.01428571 7.98571429 10 0 17.9857143 2.01428571 20 10 12.0142857 17.9857143 20 20 17.9857143 12.0142857 10"/>
        </g>
    </g>
</g></g><g transform="translate(20, 163.0)"><g transform="translate(2442.0, -953.3)">
<style type="text/css">.cl0 {
    fill: #8C70C9
    }</style>
<g>
	<path class="cl0" d="M-2421.8,966.3c-10.6,1.3-16.7,9.5-16.7,22.4v38.6c0,7,1.9,12.4,5.4,15.6c2.4,2.1,5.4,3.2,9.1,3.2   c0.8,0,1.7-0.1,2.5-0.2c10.6-1.3,16.7-9.4,16.7-22.3v-18.8c0-0.4-0.2-0.7-0.4-0.9c-0.3-0.2-0.6-0.3-1-0.3l-13.9,1.7   c-0.6,0.1-1.1,0.6-1.1,1.2v1.1c0,0.4,0.2,0.7,0.4,0.9c0.3,0.2,0.6,0.3,1,0.3l11.4-1.4v16.3c0,6.4-1.7,17.2-13.4,18.6   c-3.8,0.5-6.8-0.3-8.9-2.2c-3.5-3-4.3-8.7-4.3-12.9v-38.6c0-6.4,1.8-17.3,13.5-18.7c3.8-0.5,6.8,0.3,8.9,2.2   c3.5,3.1,4.2,8.8,4.2,13v4.8c0,0.4,0.2,0.7,0.4,0.9s0.6,0.3,1,0.3l1.1-0.1c0.6-0.1,1.1-0.6,1.1-1.2V985c0-7-1.9-12.4-5.4-15.6   C-2413.1,966.8-2417,965.8-2421.8,966.3z"/>
	<path class="cl0" d="M-2370.1,1035.6l-24.9,3v-73.5c0-0.4-0.2-0.7-0.4-0.9c-0.3-0.2-0.6-0.3-1-0.3l-1.1,0.1   c-0.6,0.1-1.1,0.6-1.1,1.2v76c0,0.4,0.2,0.7,0.4,0.9c0.2,0.2,0.5,0.3,0.8,0.3h0.1l27.4-3.3c0.6-0.1,1.1-0.6,1.1-1.2v-1.1   c0-0.4-0.2-0.7-0.4-0.9C-2369.4,1035.6-2369.8,1035.5-2370.1,1035.6z"/>
	<path class="cl0" d="M-2332.7,959.8c0.6-0.1,1.1-0.6,1.1-1.2v-1.2c0-0.4-0.2-0.7-0.4-0.9c-0.3-0.2-0.6-0.3-1-0.3l-28.4,3.4   c-0.6,0.1-1.1,0.6-1.1,1.2v76c0,0.4,0.2,0.7,0.4,0.9c0.2,0.2,0.5,0.3,0.8,0.3h0.1l28.4-3.4c0.6-0.1,1.1-0.6,1.1-1.2v-1.1   c0-0.4-0.2-0.7-0.4-0.9c-0.3-0.2-0.6-0.3-1-0.3l-26,3.1v-34.4l22-2.7c0.6-0.1,1.1-0.6,1.1-1.2v-1.1c0-0.4-0.2-0.7-0.4-0.9   c-0.3-0.2-0.6-0.3-1-0.3l-21.6,2.6v-33.3L-2332.7,959.8z"/>
</g>
</g></g><g transform="translate(20, 279.0)"><g transform="translate(2459.0, -956.0)">
<style type="text/css">.cl1 {
    fill: #8C70C9
    }</style>
<g>
	<g>
		<path class="cl1" d="M-2439.5,963.6c-10.6,1.2-16.7,9.4-16.7,22.3v38.6c0,7,1.9,12.4,5.4,15.6c2.4,2.1,5.4,3.2,9.1,3.2    c0.8,0,1.7-0.1,2.5-0.2c10.6-1.3,16.7-9.4,16.7-22.3V1002c0-0.4-0.2-0.7-0.4-0.9c-0.3-0.2-0.6-0.3-1-0.3l-13.9,1.7    c-0.6,0.1-1.1,0.6-1.1,1.2v1.1c0,0.4,0.2,0.7,0.4,0.9c0.3,0.2,0.6,0.3,1,0.3l11.5-1.4v16.3c0,6.4-1.7,17.2-13.4,18.6    c-3.8,0.5-6.8-0.3-8.9-2.2c-3.5-3.1-4.2-8.8-4.2-13v-38.5c0-6.4,1.7-17.2,13.4-18.6c3.8-0.5,6.8,0.3,8.9,2.2    c3.5,3.1,4.2,8.8,4.2,13v4.6c0,0.4,0.2,0.7,0.4,0.9c0.3,0.2,0.6,0.3,1,0.3l1.1-0.1c0.6-0.1,1.1-0.6,1.1-1.2v-4.8    c0-7-1.9-12.4-5.4-15.6C-2430.8,964-2434.7,963-2439.5,963.6z"/>
		<path class="cl1" d="M-2399.3,958.7c-10.8,1.3-17,9.4-17,22.4v38.6c0,7,1.9,12.3,5.4,15.5c2.4,2.1,5.5,3.2,9.2,3.2    c0.8,0,1.7-0.1,2.6-0.2c10.8-1.3,17.1-9.5,17.1-22.4v-38.6c0-7-1.9-12.3-5.4-15.5C-2390.3,959.2-2394.3,958.1-2399.3,958.7z     M-2385.5,977.4v38.6c0,6.4-1.8,17.2-13.8,18.7c-3.9,0.5-7-0.3-9.2-2.2c-2.8-2.4-4.2-6.9-4.2-12.9v-38.7c0-6.4,1.8-17.2,13.7-18.7    c0.7-0.1,1.5-0.1,2.2-0.1c2.9,0,5.3,0.8,7.1,2.4C-2386.3,967.7-2385.5,973.2-2385.5,977.4z"/>
	</g>
</g>
</g></g><g transform="translate(20, 389.0)"><g transform="translate(2461.0, -957.0)">
<style type="text/css">.cl2 {
    fill: #8971B2
    }
.cl3 {
    fill: none;
    stroke: #221F1F;
    stroke-width: 3;
    stroke-linecap: round;
    stroke-linejoin: round;
    stroke-miterlimit: 10
    }</style>
<g>
	<g>
		<g>
			<path class="cl2" d="M-2457.9,964.5c0-4.8,3.4-6.8,7.6-4.4l59.9,34.6c4.2,2.4,4.2,6.3,0,8.7l-60,34.6c-4.2,2.4-7.6,0.4-7.6-4.4     v-69.1H-2457.9z"/>
			<path class="cl3" d="M-2457.9,964.5c0-4.8,3.4-6.8,7.6-4.4l59.9,34.6c4.2,2.4,4.2,6.3,0,8.7l-60,34.6c-4.2,2.4-7.6,0.4-7.6-4.4     v-69.1H-2457.9z"/>
		</g>
	</g>
</g>
</g></g><g transform="translate(20, 494.0)"><g transform="translate(-0.0, -0.0)">
    <!-- Generator: Sketch Beta 48 (47232) - http://www.bohemiancoding.com/sketch -->
    <title>email</title>
    <desc>Created with Sketch Beta.</desc>
    <defs/>
    <g fill="none" fill-rule="evenodd" id="uid_17" stroke="none" stroke-width="1">
        <g id="uid_18">
            <path d="M92.702,98.001 C95.628,98.001 98,95.629 98,92.703 L98,7.299 C98,4.372 95.628,2 92.702,2 L7.299,2 C4.372,2 2,4.372 2,7.299 L2,92.703 C2,95.629 4.372,98.001 7.299,98.001 L92.702,98.001 Z" fill="#99BBCF" id="uid_19"/>
            <path d="M73.8744,26.1267 L26.1264,26.1267 C22.8284,26.1267 20.1874,28.7977 20.1874,32.0957 L20.1574,67.9067 C20.1574,71.2037 22.8284,73.8747 26.1264,73.8747 L73.8744,73.8747 C77.1724,73.8747 79.8434,71.2037 79.8434,67.9067 L79.8434,32.0957 C79.8434,28.7977 77.1724,26.1267 73.8744,26.1267 L73.8744,26.1267 Z M73.8744,38.0637 L50.0004,52.9847 L26.1264,38.0637 L26.1264,32.0957 L50.0004,47.0167 L73.8744,32.0957 L73.8744,38.0637 Z" fill="#FFFFFF" id="uid_20"/>
        </g>
    </g>
</g></g><g transform="translate(20, 614.0)"><g transform="translate(-0.0, -0.0)">
    <!-- Generator: Sketch Beta 48 (47232) - http://www.bohemiancoding.com/sketch -->
    <title>facebook</title>
    <desc>Created with Sketch Beta.</desc>
    <defs/>
    <g fill="none" fill-rule="evenodd" id="uid_21" stroke="none" stroke-width="1">
        <g id="uid_22">
            <path d="M92.702,98.001 C95.628,98.001 98,95.629 98,92.703 L98,7.299 C98,4.372 95.628,2 92.702,2 L7.299,2 C4.372,2 2,4.372 2,7.299 L2,92.703 C2,95.629 4.372,98.001 7.299,98.001 L92.702,98.001 Z" fill="#3D5A98" id="uid_23"/>
            <path d="M68.2386,98.001 L68.2386,60.825 L80.7176,60.825 L82.5856,46.336 L68.2386,46.336 L68.2386,37.086 C68.2386,32.891 69.4036,30.033 75.4186,30.033 L83.0916,30.029 L83.0916,17.071 C81.7636,16.894 77.2096,16.5 71.9116,16.5 C60.8496,16.5 53.2766,23.252 53.2766,35.651 L53.2766,46.336 L40.7666,46.336 L40.7666,60.825 L53.2766,60.825 L53.2766,98.001 L68.2386,98.001 Z" fill="#FFFFFF" id="uid_24"/>
            <path d="M92.702,98.001 C95.628,98.001 98,95.629 98,92.703 L98,7.299 C98,4.372 95.628,2 92.702,2 L7.299,2 C4.372,2 2,4.372 2,7.299 L2,92.703 C2,95.629 4.372,98.001 7.299,98.001 L92.702,98.001 Z" fill="#3D5A98" id="uid_23"/>
            <path d="M68.2386,98.001 L68.2386,60.825 L80.7176,60.825 L82.5856,46.336 L68.2386,46.336 L68.2386,37.086 C68.2386,32.891 69.4036,30.033 75.4186,30.033 L83.0916,30.029 L83.0916,17.071 C81.7636,16.894 77.2096,16.5 71.9116,16.5 C60.8496,16.5 53.2766,23.252 53.2766,35.651 L53.2766,46.336 L40.7666,46.336 L40.7666,60.825 L53.2766,60.825 L53.2766,98.001 L68.2386,98.001 Z" fill="#FFFFFF" id="uid_24"/>
        </g>
    </g>
</g></g><g transform="translate(20, 734.0)"><g transform="translate(-0.0, -0.0)">
    <!-- Generator: Sketch Beta 48 (47232) - http://www.bohemiancoding.com/sketch -->
    <title>Artboard 4</title>
    <desc>Created with Sketch Beta.</desc>
    <defs/>
    <g fill="none" fill-rule="evenodd" id="uid_25" stroke="none" stroke-width="1">
        <g id="uid_26">
            <rect fill="#C188C6" height="96" id="uid_27" rx="4" width="96" x="3" y="3"/>
            <g id="uid_28" transform="translate(19.000000, 19.000000)">
                <polygon id="uid_29" points="0 0 65 0 65 65 0 65"/>
                <path d="M43.25,13.9090909 L39.43375,17.7818182 L35.160625,13.4454545 L35.160625,43.9090909 L29.839375,43.9090909 L29.839375,13.4454545 L25.56625,17.7818182 L21.75,13.9090909 L32.5,3 L43.25,13.9090909 Z M54,27.5454545 L54,57.5454545 C54,60.5454545 51.58125,63 48.625,63 L16.375,63 C13.391875,63 11,60.5454545 11,57.5454545 L11,27.5454545 C11,24.5181818 13.391875,22.0909091 16.375,22.0909091 L24.4375,22.0909091 L24.4375,27.5454545 L16.375,27.5454545 L16.375,57.5454545 L48.625,57.5454545 L48.625,27.5454545 L40.5625,27.5454545 L40.5625,22.0909091 L48.625,22.0909091 C51.58125,22.0909091 54,24.5181818 54,27.5454545 Z" fill="#FFFFFF" fill-rule="nonzero" id="uid_29"/>
            </g>
        </g>
    </g>
</g></g><g transform="translate(20, 857.0)"><g transform="translate(-0.0, -0.0)">
    <!-- Generator: Sketch Beta 48 (47232) - http://www.bohemiancoding.com/sketch -->
    <title>Group 2</title>
    <desc>Created with Sketch Beta.</desc>
    <defs/>
    <g fill="none" fill-rule="evenodd" id="uid_30" stroke="none" stroke-width="1">
        <g fill-rule="nonzero" id="uid_31" transform="translate(1.000000, 1.000000)">
            <g fill="#FFFFFF" id="uid_32" transform="translate(0.000000, 1.000000)">
                <path d="M1.16571429,1.16666667 L1.16571429,9.66666667 L6.16,9.66666667 L6.16,1.16666667 L1.16571429,1.16666667 Z M1.16571429,-0.833333333 L6.16,-0.833333333 C7.2645695,-0.833333333 8.16,0.062097167 8.16,1.16666667 L8.16,9.66666667 C8.16,10.7712362 7.2645695,11.6666667 6.16,11.6666667 L1.16571429,11.6666667 C0.0611447861,11.6666667 -0.834285714,10.7712362 -0.834285714,9.66666667 L-0.834285714,1.16666667 C-0.834285714,0.062097167 0.0611447861,-0.833333333 1.16571429,-0.833333333 Z" id="uid_33"/>
                <path d="M1.16571429,16.3333333 L1.16571429,24.8333333 L6.16,24.8333333 L6.16,16.3333333 L1.16571429,16.3333333 Z M1.16571429,14.3333333 L6.16,14.3333333 C7.2645695,14.3333333 8.16,15.2287638 8.16,16.3333333 L8.16,24.8333333 C8.16,25.9379028 7.2645695,26.8333333 6.16,26.8333333 L1.16571429,26.8333333 C0.0611447861,26.8333333 -0.834285714,25.9379028 -0.834285714,24.8333333 L-0.834285714,16.3333333 C-0.834285714,15.2287638 0.0611447861,14.3333333 1.16571429,14.3333333 Z" id="uid_33"/>
                <path d="M13.9885714,1.16666667 L13.9885714,9.66666667 L18.9828571,9.66666667 L18.9828571,1.16666667 L13.9885714,1.16666667 Z M13.9885714,-0.833333333 L18.9828571,-0.833333333 C20.0874266,-0.833333333 20.9828571,0.062097167 20.9828571,1.16666667 L20.9828571,9.66666667 C20.9828571,10.7712362 20.0874266,11.6666667 18.9828571,11.6666667 L13.9885714,11.6666667 C12.8840019,11.6666667 11.9885714,10.7712362 11.9885714,9.66666667 L11.9885714,1.16666667 C11.9885714,0.062097167 12.8840019,-0.833333333 13.9885714,-0.833333333 Z" id="uid_33"/>
                <path d="M13.9885714,16.3333333 L13.9885714,24.8333333 L18.9828571,24.8333333 L18.9828571,16.3333333 L13.9885714,16.3333333 Z M13.9885714,14.3333333 L18.9828571,14.3333333 C20.0874266,14.3333333 20.9828571,15.2287638 20.9828571,16.3333333 L20.9828571,24.8333333 C20.9828571,25.9379028 20.0874266,26.8333333 18.9828571,26.8333333 L13.9885714,26.8333333 C12.8840019,26.8333333 11.9885714,25.9379028 11.9885714,24.8333333 L11.9885714,16.3333333 C11.9885714,15.2287638 12.8840019,14.3333333 13.9885714,14.3333333 Z" id="uid_33"/>
                <path d="M26.8114286,1.16666667 L26.8114286,9.66666667 L31.8057143,9.66666667 L31.8057143,1.16666667 L26.8114286,1.16666667 Z M26.8114286,-0.833333333 L31.8057143,-0.833333333 C32.9102838,-0.833333333 33.8057143,0.062097167 33.8057143,1.16666667 L33.8057143,9.66666667 C33.8057143,10.7712362 32.9102838,11.6666667 31.8057143,11.6666667 L26.8114286,11.6666667 C25.7068591,11.6666667 24.8114286,10.7712362 24.8114286,9.66666667 L24.8114286,1.16666667 C24.8114286,0.062097167 25.7068591,-0.833333333 26.8114286,-0.833333333 Z" id="uid_33"/>
                <path d="M26.8114286,16.3333333 L26.8114286,24.8333333 L31.8057143,24.8333333 L31.8057143,16.3333333 L26.8114286,16.3333333 Z M26.8114286,14.3333333 L31.8057143,14.3333333 C32.9102838,14.3333333 33.8057143,15.2287638 33.8057143,16.3333333 L33.8057143,24.8333333 C33.8057143,25.9379028 32.9102838,26.8333333 31.8057143,26.8333333 L26.8114286,26.8333333 C25.7068591,26.8333333 24.8114286,25.9379028 24.8114286,24.8333333 L24.8114286,16.3333333 C24.8114286,15.2287638 25.7068591,14.3333333 26.8114286,14.3333333 Z" id="uid_33"/>
            </g>
            <g fill="#000000" id="uid_32">
                <path d="M1.16571429,1.16666667 L1.16571429,9.66666667 L6.16,9.66666667 L6.16,1.16666667 L1.16571429,1.16666667 Z M1.16571429,-0.833333333 L6.16,-0.833333333 C7.2645695,-0.833333333 8.16,0.062097167 8.16,1.16666667 L8.16,9.66666667 C8.16,10.7712362 7.2645695,11.6666667 6.16,11.6666667 L1.16571429,11.6666667 C0.0611447861,11.6666667 -0.834285714,10.7712362 -0.834285714,9.66666667 L-0.834285714,1.16666667 C-0.834285714,0.062097167 0.0611447861,-0.833333333 1.16571429,-0.833333333 Z" id="uid_33"/>
                <path d="M1.16571429,16.3333333 L1.16571429,24.8333333 L6.16,24.8333333 L6.16,16.3333333 L1.16571429,16.3333333 Z M1.16571429,14.3333333 L6.16,14.3333333 C7.2645695,14.3333333 8.16,15.2287638 8.16,16.3333333 L8.16,24.8333333 C8.16,25.9379028 7.2645695,26.8333333 6.16,26.8333333 L1.16571429,26.8333333 C0.0611447861,26.8333333 -0.834285714,25.9379028 -0.834285714,24.8333333 L-0.834285714,16.3333333 C-0.834285714,15.2287638 0.0611447861,14.3333333 1.16571429,14.3333333 Z" id="uid_33"/>
                <path d="M13.9885714,1.16666667 L13.9885714,9.66666667 L18.9828571,9.66666667 L18.9828571,1.16666667 L13.9885714,1.16666667 Z M13.9885714,-0.833333333 L18.9828571,-0.833333333 C20.0874266,-0.833333333 20.9828571,0.062097167 20.9828571,1.16666667 L20.9828571,9.66666667 C20.9828571,10.7712362 20.0874266,11.6666667 18.9828571,11.6666667 L13.9885714,11.6666667 C12.8840019,11.6666667 11.9885714,10.7712362 11.9885714,9.66666667 L11.9885714,1.16666667 C11.9885714,0.062097167 12.8840019,-0.833333333 13.9885714,-0.833333333 Z" id="uid_33"/>
                <path d="M13.9885714,16.3333333 L13.9885714,24.8333333 L18.9828571,24.8333333 L18.9828571,16.3333333 L13.9885714,16.3333333 Z M13.9885714,14.3333333 L18.9828571,14.3333333 C20.0874266,14.3333333 20.9828571,15.2287638 20.9828571,16.3333333 L20.9828571,24.8333333 C20.9828571,25.9379028 20.0874266,26.8333333 18.9828571,26.8333333 L13.9885714,26.8333333 C12.8840019,26.8333333 11.9885714,25.9379028 11.9885714,24.8333333 L11.9885714,16.3333333 C11.9885714,15.2287638 12.8840019,14.3333333 13.9885714,14.3333333 Z" id="uid_33"/>
                <path d="M26.8114286,1.16666667 L26.8114286,9.66666667 L31.8057143,9.66666667 L31.8057143,1.16666667 L26.8114286,1.16666667 Z M26.8114286,-0.833333333 L31.8057143,-0.833333333 C32.9102838,-0.833333333 33.8057143,0.062097167 33.8057143,1.16666667 L33.8057143,9.66666667 C33.8057143,10.7712362 32.9102838,11.6666667 31.8057143,11.6666667 L26.8114286,11.6666667 C25.7068591,11.6666667 24.8114286,10.7712362 24.8114286,9.66666667 L24.8114286,1.16666667 C24.8114286,0.062097167 25.7068591,-0.833333333 26.8114286,-0.833333333 Z" id="uid_33"/>
                <path d="M26.8114286,16.3333333 L26.8114286,24.8333333 L31.8057143,24.8333333 L31.8057143,16.3333333 L26.8114286,16.3333333 Z M26.8114286,14.3333333 L31.8057143,14.3333333 C32.9102838,14.3333333 33.8057143,15.2287638 33.8057143,16.3333333 L33.8057143,24.8333333 C33.8057143,25.9379028 32.9102838,26.8333333 31.8057143,26.8333333 L26.8114286,26.8333333 C25.7068591,26.8333333 24.8114286,25.9379028 24.8114286,24.8333333 L24.8114286,16.3333333 C24.8114286,15.2287638 25.7068591,14.3333333 26.8114286,14.3333333 Z" id="uid_33"/>
            </g>
        </g>
    </g>
</g></g><g transform="translate(20, 906.0)"><g transform="translate(-0.0, -0.0)">
    <!-- Generator: Sketch Beta 48 (47232) - http://www.bohemiancoding.com/sketch -->
    <title>nextButton</title>
    <desc>Created with Sketch Beta.</desc>
    <defs/>
    <g fill="none" fill-rule="evenodd" id="uid_34" stroke="none" stroke-width="1">
        <g fill-rule="nonzero" id="uid_35">
            <path d="M30.8452,14.2359 L16.7992,1.2909 C16.3542,0.8799 15.6572,0.9069 15.2452,1.3549 C14.8332,1.8009 14.8622,2.4969 15.3092,2.9089 L27.2832,13.9449 L1.1002,13.9449 C0.4922,13.9449 0.0002,14.4379 0.0002,15.0449 C0.0002,15.6529 0.4922,16.1449 1.1002,16.1449 L27.2882,16.1449 L14.8072,27.6819 C14.3622,28.0939 14.3342,28.7899 14.7462,29.2359 C14.9632,29.4709 15.2582,29.5889 15.5542,29.5889 C15.8222,29.5889 16.0892,29.4919 16.3012,29.2969 L30.8472,15.8529 C31.0722,15.6449 31.2002,15.3509 31.1992,15.0439 C31.1992,14.7369 31.0722,14.4439 30.8452,14.2359" fill="#FFFFFF" fill-opacity="0.66" id="uid_36"/>
            <path d="M30.8452,13.2359 L16.7992,0.2909 C16.3542,-0.1201 15.6572,-0.0931 15.2452,0.3549 C14.8332,0.8009 14.8622,1.4969 15.3092,1.9089 L27.2832,12.9449 L1.1002,12.9449 C0.4922,12.9449 0.0002,13.4379 0.0002,14.0449 C0.0002,14.6529 0.4922,15.1449 1.1002,15.1449 L27.2882,15.1449 L14.8072,26.6819 C14.3622,27.0939 14.3342,27.7899 14.7462,28.2359 C14.9632,28.4709 15.2582,28.5889 15.5542,28.5889 C15.8222,28.5889 16.0892,28.4919 16.3012,28.2969 L30.8472,14.8529 C31.0722,14.6449 31.2002,14.3509 31.1992,14.0439 C31.1992,13.7369 31.0722,13.4439 30.8452,13.2359" fill="#000000" id="uid_36"/>
        </g>
    </g>
</g></g><g transform="translate(20, 956.0)"><g transform="translate(-0.0, -0.0)">
    <!-- Generator: Sketch Beta 48 (47232) - http://www.bohemiancoding.com/sketch -->
    <title>search</title>
    <desc>Created with Sketch Beta.</desc>
    <defs/>
    <g fill="none" fill-rule="evenodd" id="uid_37" stroke="none" stroke-width="1">
        <g id="uid_38">
            <path d="M92.702,98.001 C95.628,98.001 98,95.629 98,92.703 L98,7.299 C98,4.372 95.628,2 92.702,2 L7.299,2 C4.372,2 2,4.372 2,7.299 L2,92.703 C2,95.629 4.372,98.001 7.299,98.001 L92.702,98.001 Z" fill="#F2F2F2" id="uid_39"/>
            <g fill="#008AFF" id="uid_40" transform="translate(23.000000, 23.000000)">
                <g id="uid_41">
                    <path d="M37.5,33 L35.115,33 L34.29,32.175 C37.23,28.77 39,24.345 39,19.5 C39,8.73 30.27,0 19.5,0 C8.73,0 0,8.73 0,19.5 C0,30.27 8.73,39 19.5,39 C24.345,39 28.77,37.23 32.175,34.305 L33,35.13 L33,37.5 L48,52.47 L52.47,48 L37.5,33 L37.5,33 Z M19.5,33 C12.045,33 6,26.955 6,19.5 C6,12.045 12.045,6 19.5,6 C26.955,6 33,12.045 33,19.5 C33,26.955 26.955,33 19.5,33 L19.5,33 Z" id="uid_42"/>
                </g>
            </g>
        </g>
    </g>
</g></g><g transform="translate(20, 1076.0)"><g transform="translate(-0.0, -0.0)">
    <!-- Generator: Sketch Beta 48 (47232) - http://www.bohemiancoding.com/sketch -->
    <title>Group 9</title>
    <desc>Created with Sketch Beta.</desc>
    <defs/>
    <g fill="none" fill-rule="evenodd" id="uid_43" stroke="none" stroke-width="1">
        <g fill-rule="nonzero" id="uid_44">
            <g id="uid_45">
                <path d="M11,23 C4.92486775,23 0,18.0751322 0,12 C0,5.92486775 4.92486775,1 11,1 C17.0751322,1 22,5.92486775 22,12 C22,18.0751322 17.0751322,23 11,23 Z M11,21 C15.9705627,21 20,16.9705627 20,12 C20,7.02943725 15.9705627,3 11,3 C6.02943725,3 2,7.02943725 2,12 C2,16.9705627 6.02943725,21 11,21 Z" fill="#FFFFFF" fill-opacity="0.66" id="uid_46"/>
                <path d="M11,22 C4.92486775,22 0,17.0751322 0,11 C0,4.92486775 4.92486775,0 11,0 C17.0751322,0 22,4.92486775 22,11 C22,17.0751322 17.0751322,22 11,22 Z M11,20 C15.9705627,20 20,15.9705627 20,11 C20,6.02943725 15.9705627,2 11,2 C6.02943725,2 2,6.02943725 2,11 C2,15.9705627 6.02943725,20 11,20 Z" fill="#000000" id="uid_46"/>
                <path d="M18.2928932,20.7071068 C17.9023689,20.3165825 17.9023689,19.6834175 18.2928932,19.2928932 C18.6834175,18.9023689 19.3165825,18.9023689 19.7071068,19.2928932 L28.1446068,27.7303932 C28.5351311,28.1209175 28.5351311,28.7540825 28.1446068,29.1446068 C27.7540825,29.5351311 27.1209175,29.5351311 26.7303932,29.1446068 L18.2928932,20.7071068 Z" fill="#FFFFFF" fill-opacity="0.66" id="uid_47"/>
                <path d="M18.2928932,19.7071068 C17.9023689,19.3165825 17.9023689,18.6834175 18.2928932,18.2928932 C18.6834175,17.9023689 19.3165825,17.9023689 19.7071068,18.2928932 L28.1446068,26.7303932 C28.5351311,27.1209175 28.5351311,27.7540825 28.1446068,28.1446068 C27.7540825,28.5351311 27.1209175,28.5351311 26.7303932,28.1446068 L18.2928932,19.7071068 Z" fill="#000000" id="uid_47"/>
            </g>
        </g>
    </g>
</g></g><g transform="translate(20, 1126.0)"><g transform="translate(-0.0, -0.0)">
    <!-- Generator: Sketch Beta 48 (47232) - http://www.bohemiancoding.com/sketch -->
    <title>Group 3</title>
    <desc>Created with Sketch Beta.</desc>
    <defs/>
    <g fill="none" fill-rule="evenodd" id="uid_48" stroke="none" stroke-width="1">
        <g fill-rule="nonzero" id="uid_49">
            <g id="uid_50">
                <g fill="#FFFFFF" fill-opacity="0.66" id="uid_51" transform="translate(0.000000, 1.000000)">
                    <path d="M5.30769231,21.2857143 C2.37747659,21.2857143 0,18.9203677 0,16 C0,13.0796323 2.37747659,10.7142857 5.30769231,10.7142857 C8.23790802,10.7142857 10.6153846,13.0796323 10.6153846,16 C10.6153846,18.9203677 8.23790802,21.2857143 5.30769231,21.2857143 Z M5.30769231,19.2857143 C7.13562213,19.2857143 8.61538462,17.8135016 8.61538462,16 C8.61538462,14.1864984 7.13562213,12.7142857 5.30769231,12.7142857 C3.47976248,12.7142857 2,14.1864984 2,16 C2,17.8135016 3.47976248,19.2857143 5.30769231,19.2857143 Z" id="uid_52"/>
                    <path d="M24.6923077,10.5714286 C21.762092,10.5714286 19.3846154,8.20608196 19.3846154,5.28571429 C19.3846154,2.36534661 21.762092,0 24.6923077,0 C27.6225234,0 30,2.36534661 30,5.28571429 C30,8.20608196 27.6225234,10.5714286 24.6923077,10.5714286 Z M24.6923077,8.57142857 C26.5202375,8.57142857 28,7.0992159 28,5.28571429 C28,3.47221268 26.5202375,2 24.6923077,2 C22.8643779,2 21.3846154,3.47221268 21.3846154,5.28571429 C21.3846154,7.0992159 22.8643779,8.57142857 24.6923077,8.57142857 Z" id="uid_52"/>
                    <path d="M24.6923077,32 C21.762092,32 19.3846154,29.6346534 19.3846154,26.7142857 C19.3846154,23.793918 21.762092,21.4285714 24.6923077,21.4285714 C27.6225234,21.4285714 30,23.793918 30,26.7142857 C30,29.6346534 27.6225234,32 24.6923077,32 Z M24.6923077,30 C26.5202375,30 28,28.5277873 28,26.7142857 C28,24.9007841 26.5202375,23.4285714 24.6923077,23.4285714 C22.8643779,23.4285714 21.3846154,24.9007841 21.3846154,26.7142857 C21.3846154,28.5277873 22.8643779,30 24.6923077,30 Z" id="uid_52"/>
                    <polygon id="uid_53" points="9.16543112 14.1264387 8.27466024 12.3357608 20.8345689 6.08784705 21.7253398 7.87852492"/>
                    <polygon id="uid_53" points="8.03935165 25.8946403 7.2152498 24.0723187 20.8837253 17.891074 21.7078271 19.7133956" transform="translate(14.461538, 21.892857) scale(1, -1) translate(-14.461538, -21.892857) "/>
                </g>
                <g fill="#000000" id="uid_51">
                    <path d="M5.30769231,21.2857143 C2.37747659,21.2857143 0,18.9203677 0,16 C0,13.0796323 2.37747659,10.7142857 5.30769231,10.7142857 C8.23790802,10.7142857 10.6153846,13.0796323 10.6153846,16 C10.6153846,18.9203677 8.23790802,21.2857143 5.30769231,21.2857143 Z M5.30769231,19.2857143 C7.13562213,19.2857143 8.61538462,17.8135016 8.61538462,16 C8.61538462,14.1864984 7.13562213,12.7142857 5.30769231,12.7142857 C3.47976248,12.7142857 2,14.1864984 2,16 C2,17.8135016 3.47976248,19.2857143 5.30769231,19.2857143 Z" id="uid_52"/>
                    <path d="M24.6923077,10.5714286 C21.762092,10.5714286 19.3846154,8.20608196 19.3846154,5.28571429 C19.3846154,2.36534661 21.762092,0 24.6923077,0 C27.6225234,0 30,2.36534661 30,5.28571429 C30,8.20608196 27.6225234,10.5714286 24.6923077,10.5714286 Z M24.6923077,8.57142857 C26.5202375,8.57142857 28,7.0992159 28,5.28571429 C28,3.47221268 26.5202375,2 24.6923077,2 C22.8643779,2 21.3846154,3.47221268 21.3846154,5.28571429 C21.3846154,7.0992159 22.8643779,8.57142857 24.6923077,8.57142857 Z" id="uid_52"/>
                    <path d="M24.6923077,32 C21.762092,32 19.3846154,29.6346534 19.3846154,26.7142857 C19.3846154,23.793918 21.762092,21.4285714 24.6923077,21.4285714 C27.6225234,21.4285714 30,23.793918 30,26.7142857 C30,29.6346534 27.6225234,32 24.6923077,32 Z M24.6923077,30 C26.5202375,30 28,28.5277873 28,26.7142857 C28,24.9007841 26.5202375,23.4285714 24.6923077,23.4285714 C22.8643779,23.4285714 21.3846154,24.9007841 21.3846154,26.7142857 C21.3846154,28.5277873 22.8643779,30 24.6923077,30 Z" id="uid_52"/>
                    <polygon id="uid_53" points="9.16543112 14.1264387 8.27466024 12.3357608 20.8345689 6.08784705 21.7253398 7.87852492"/>
                    <polygon id="uid_53" points="8.03935165 25.8946403 7.2152498 24.0723187 20.8837253 17.891074 21.7078271 19.7133956" transform="translate(14.461538, 21.892857) scale(1, -1) translate(-14.461538, -21.892857) "/>
                </g>
            </g>
        </g>
    </g>
</g></g><g transform="translate(20, 1179.0)"><g transform="translate(-0.0, -0.0)"><defs><path d="M24 6A18 18 0 1 1 6 24" fill="none" id="uid_54" stroke="#000" stroke-dasharray="84.823" stroke-linecap="square" stroke-width="4"/></defs><use stroke-dashoffset="254.38" xlink:href="#uid_54"/><use stroke-dashoffset="254.26" transform="translate(48)" xlink:href="#uid_54"/><use stroke-dashoffset="253.89" transform="translate(96)" xlink:href="#uid_54"/><use stroke-dashoffset="253.22" transform="translate(144)" xlink:href="#uid_54"/><use stroke-dashoffset="252.19" transform="translate(192)" xlink:href="#uid_54"/><use stroke-dashoffset="250.74" transform="translate(240)" xlink:href="#uid_54"/><use stroke-dashoffset="248.79" transform="translate(288)" xlink:href="#uid_54"/><use stroke-dashoffset="246.25" transform="translate(336)" xlink:href="#uid_54"/><use stroke-dashoffset="243.03" transform="translate(384)" xlink:href="#uid_54"/><use stroke-dashoffset="239.06" transform="translate(432)" xlink:href="#uid_54"/><use stroke-dashoffset="234.33" transform="translate(480)" xlink:href="#uid_54"/><use stroke-dashoffset="228.98" transform="translate(528)" xlink:href="#uid_54"/><use stroke-dashoffset="223.26" transform="translate(576)" xlink:href="#uid_54"/><use stroke-dashoffset="217.51" transform="translate(624)" xlink:href="#uid_54"/><use stroke-dashoffset="212.02" transform="translate(672)" xlink:href="#uid_54"/><use stroke-dashoffset="206.95" transform="translate(720)" xlink:href="#uid_54"/><use stroke-dashoffset="202.39" transform="translate(768)" xlink:href="#uid_54"/><use stroke-dashoffset="198.32" transform="translate(816)" xlink:href="#uid_54"/><use stroke-dashoffset="194.71" transform="translate(864)" xlink:href="#uid_54"/><use stroke-dashoffset="191.51" transform="translate(912)" xlink:href="#uid_54"/><use stroke-dashoffset="188.67" transform="translate(960)" xlink:href="#uid_54"/><use stroke-dashoffset="186.15" transform="translate(1008)" xlink:href="#uid_54"/><use stroke-dashoffset="183.91" transform="translate(1056)" xlink:href="#uid_54"/><use stroke-dashoffset="181.92" transform="translate(1104)" xlink:href="#uid_54"/><use stroke-dashoffset="180.16" transform="translate(1152)" xlink:href="#uid_54"/><use stroke-dashoffset="178.59" transform="translate(1200)" xlink:href="#uid_54"/><use stroke-dashoffset="177.2" transform="translate(1248)" xlink:href="#uid_54"/><use stroke-dashoffset="175.97" transform="translate(1296)" xlink:href="#uid_54"/><use stroke-dashoffset="174.88" transform="translate(1344)" xlink:href="#uid_54"/><use stroke-dashoffset="173.93" transform="translate(1392)" xlink:href="#uid_54"/><use stroke-dashoffset="173.09" transform="translate(1440)" xlink:href="#uid_54"/><use stroke-dashoffset="172.37" transform="translate(1488)" xlink:href="#uid_54"/><use stroke-dashoffset="171.75" transform="translate(1536)" xlink:href="#uid_54"/><use stroke-dashoffset="171.22" transform="translate(1584)" xlink:href="#uid_54"/><use stroke-dashoffset="170.77" transform="translate(1632)" xlink:href="#uid_54"/><use stroke-dashoffset="170.41" transform="translate(1680)" xlink:href="#uid_54"/><use stroke-dashoffset="170.13" transform="translate(1728)" xlink:href="#uid_54"/><use stroke-dashoffset="169.91" transform="translate(1776)" xlink:href="#uid_54"/><use stroke-dashoffset="169.76" transform="translate(1824)" xlink:href="#uid_54"/><use stroke-dashoffset="169.68" transform="translate(1872)" xlink:href="#uid_54"/><use stroke-dashoffset="169.65" transform="translate(1920)" xlink:href="#uid_54"/><use stroke-dashoffset="169.53" transform="translate(1968)" xlink:href="#uid_54"/><use stroke-dashoffset="169.16" transform="translate(2016)" xlink:href="#uid_54"/><use stroke-dashoffset="168.49" transform="translate(2064)" xlink:href="#uid_54"/><use stroke-dashoffset="167.47" transform="translate(2112)" xlink:href="#uid_54"/><use stroke-dashoffset="166.03" transform="translate(2160)" xlink:href="#uid_54"/><use stroke-dashoffset="164.09" transform="translate(2208)" xlink:href="#uid_54"/><use stroke-dashoffset="161.57" transform="translate(2256)" xlink:href="#uid_54"/><use stroke-dashoffset="158.37" transform="translate(2304)" xlink:href="#uid_54"/><use stroke-dashoffset="154.42" transform="translate(2352)" xlink:href="#uid_54"/><use stroke-dashoffset="149.72" transform="translate(2400)" xlink:href="#uid_54"/><use stroke-dashoffset="144.4" transform="translate(2448)" xlink:href="#uid_54"/><use stroke-dashoffset="138.71" transform="translate(2496)" xlink:href="#uid_54"/><use stroke-dashoffset="133" transform="translate(2544)" xlink:href="#uid_54"/><use stroke-dashoffset="127.54" transform="translate(2592)" xlink:href="#uid_54"/><use stroke-dashoffset="122.5" transform="translate(2640)" xlink:href="#uid_54"/><use stroke-dashoffset="117.97" transform="translate(2688)" xlink:href="#uid_54"/><use stroke-dashoffset="113.92" transform="translate(2736)" xlink:href="#uid_54"/><use stroke-dashoffset="110.33" transform="translate(2784)" xlink:href="#uid_54"/><use stroke-dashoffset="107.15" transform="translate(2832)" xlink:href="#uid_54"/><use stroke-dashoffset="104.32" transform="translate(2880)" xlink:href="#uid_54"/><use stroke-dashoffset="101.82" transform="translate(2928)" xlink:href="#uid_54"/><use stroke-dashoffset="99.6" transform="translate(2976)" xlink:href="#uid_54"/><use stroke-dashoffset="97.62" transform="translate(3024)" xlink:href="#uid_54"/><use stroke-dashoffset="95.87" transform="translate(3072)" xlink:href="#uid_54"/><use stroke-dashoffset="94.31" transform="translate(3120)" xlink:href="#uid_54"/><use stroke-dashoffset="92.93" transform="translate(3168)" xlink:href="#uid_54"/><use stroke-dashoffset="91.7" transform="translate(3216)" xlink:href="#uid_54"/><use stroke-dashoffset="90.62" transform="translate(3264)" xlink:href="#uid_54"/><use stroke-dashoffset="89.67" transform="translate(3312)" xlink:href="#uid_54"/><use stroke-dashoffset="88.84" transform="translate(3360)" xlink:href="#uid_54"/><use stroke-dashoffset="88.12" transform="translate(3408)" xlink:href="#uid_54"/><use stroke-dashoffset="87.5" transform="translate(3456)" xlink:href="#uid_54"/><use stroke-dashoffset="86.98" transform="translate(3504)" xlink:href="#uid_54"/><use stroke-dashoffset="86.54" transform="translate(3552)" xlink:href="#uid_54"/><use stroke-dashoffset="86.18" transform="translate(3600)" xlink:href="#uid_54"/><use stroke-dashoffset="85.9" transform="translate(3648)" xlink:href="#uid_54"/><use stroke-dashoffset="85.68" transform="translate(3696)" xlink:href="#uid_54"/><use stroke-dashoffset="85.53" transform="translate(3744)" xlink:href="#uid_54"/><use stroke-dashoffset="85.45" transform="translate(3792)" xlink:href="#uid_54"/><use stroke-dashoffset="85.42" transform="translate(3840)" xlink:href="#uid_54"/></g></g><g transform="translate(20, 1247.0)"><g transform="translate(-0.0, -0.0)">
    <!-- Generator: Sketch Beta 48 (47232) - http://www.bohemiancoding.com/sketch -->
    <title>twitter</title>
    <desc>Created with Sketch Beta.</desc>
    <defs/>
    <g fill="none" fill-rule="evenodd" id="uid_55" stroke="none" stroke-width="1">
        <g fill-rule="nonzero" id="uid_56">
            <g id="uid_57" transform="translate(2.000000, 2.000000)">
                <g fill="#1DA1F2" id="uid_58">
                    <rect height="96" id="uid_59" rx="4" width="96" x="0" y="0"/>
                </g>
                <g fill="#FFFFFF" id="uid_60" transform="translate(18.000000, 24.000000)">
                    <path d="M19.3201758,48.891759 C42.0606806,48.891759 54.4987774,30.125543 54.4987774,13.851565 C54.4987774,13.318543 54.4987774,12.787922 54.4626202,12.259702 C56.8823395,10.516362 58.9710819,8.35778743 60.6310484,5.885047 C58.374544,6.88098606 55.9808135,7.53412259 53.5297629,7.822654 C56.110774,6.28356992 58.0424864,3.86285754 58.965404,1.011017 C56.5384264,2.44550721 53.883251,3.45646436 51.1144581,4.000262 C47.2819882,-0.0588823365 41.19223,-1.05237219 36.25997,1.57688451 C31.32771,4.2061412 28.7795774,9.80426107 30.0444185,15.23214 C20.1033317,14.7357321 10.8412404,10.0587612 4.56319355,2.365181 C1.28161566,7.99227199 2.95778208,15.1909856 8.39104194,18.804828 C6.42346327,18.7467419 4.49878391,18.2180552 2.77943548,17.263386 C2.77943548,17.313807 2.77943548,17.366629 2.77943548,17.419451 C2.78104601,23.2817157 6.92968967,28.3308799 12.6985766,29.491679 C10.878347,29.9861411 8.96854708,30.0584214 7.11589597,29.702967 C8.73561561,34.7196712 13.3773076,38.1563691 18.6669347,38.255329 C14.2888573,41.6825931 8.88051361,43.5431179 3.31215242,43.537529 C2.32844255,43.5356479 1.34568948,43.4763215 0.368951613,43.359855 C6.02306924,46.974024 12.6019485,48.8910793 19.3201758,48.882155" id="uid_61"/>
                </g>
            </g>
        </g>
    </g>
</g></g></svg>