<?xml version="1.0" ?><svg height="782px" preserveAspectRatio="none" viewBox="0 0 153.0 782" width="153.0px" xmlns="http://www.w3.org/2000/svg" xmlns:xlink="http://www.w3.org/1999/xlink"><g id="s20-20" transform="translate(20, 20)"><g transform="translate(-0.0, -0.0)"><g fill="none" fill-rule="evenodd"><path d="M92.7 98c3 0 5.3-2.4 5.3-5.3V7.3c0-3-2.4-5.3-5.3-5.3H7.3C4.3 2 2 4.4 2 7.3v85.4c0 3 2.4 5.3 5.3 5.3h85.4z" fill="#99BBCF"/><path d="M73.9 26.1H26a6 6 0 00-6 6v35.8a6 6 0 006 6h48a6 6 0 006-6V32.1a6 6 0 00-6-6zm0 12L50 53 26.1 38v-5.9l23.9 15 23.9-15v6z" fill="#FFF"/></g></g></g><g id="s20-140" transform="translate(20, 140)"><g transform="translate(-0.0, -0.0)"><g fill="none" fill-rule="evenodd"><path d="M92.7 98c3 0 5.3-2.4 5.3-5.3V7.3c0-3-2.4-5.3-5.3-5.3H7.3C4.3 2 2 4.4 2 7.3v85.4c0 3 2.4 5.3 5.3 5.3h85.4z" fill="#3D5A98"/><path d="M68.2 98V60.8h12.5l1.9-14.5H68.2v-9.2c0-4.2 1.2-7 7.2-7h7.7V17c-1.3-.2-5.9-.6-11.2-.6-11 0-18.6 6.8-18.6 19.2v10.6H40.8v14.5h12.5V98h15z" fill="#FFF"/><path d="M92.7 98c3 0 5.3-2.4 5.3-5.3V7.3c0-3-2.4-5.3-5.3-5.3H7.3C4.3 2 2 4.4 2 7.3v85.4c0 3 2.4 5.3 5.3 5.3h85.4z" fill="#3D5A98"/><path d="M68.2 98V60.8h12.5l1.9-14.5H68.2v-9.2c0-4.2 1.2-7 7.2-7h7.7V17c-1.3-.2-5.9-.6-11.2-.6-11 0-18.6 6.8-18.6 19.2v10.6H40.8v14.5h12.5V98h15z" fill="#FFF"/></g></g></g><g id="s20-260" transform="translate(20, 260)"><g transform="translate(-0.0, -0.0)"><circle cx="71.5" cy="56.8" fill="none" r="37.4" stroke="#5b5b5b" stroke-width="6" transform="translate(-14 .9)"/><circle cx="56.9" cy="48.9" fill="#5b5b5b" r="4.3" transform="translate(-14 .9)"/><circle cx="84.6" cy="48.9" fill="#5b5b5b" r="4.3" transform="translate(-14 .9)"/><path d="M75.8 71.2a23.5 23.5 0 01-37.3 0" fill="none" stroke="#5b5b5b" stroke-linecap="round" stroke-linejoin="round" stroke-miterlimit="1.5" stroke-width="6"/></g></g><g id="s20-394" transform="translate(20, 394)"><g transform="translate(-0.0, -0.0)"><circle cx="71.5" cy="56.8" fill="none" r="37.4" stroke="#5b5b5b" stroke-width="6" transform="translate(-14 1)"/><circle cx="56.9" cy="48.9" fill="#5b5b5b" r="4.3" transform="translate(-14 1)"/><circle cx="84.6" cy="48.9" fill="#5b5b5b" r="4.3" transform="translate(-14 1)"/><path d="M36.4 73.3h41.3" fill="none" stroke="#5b5b5b" stroke-linecap="round" stroke-linejoin="round" stroke-miterlimit="1.5" stroke-width="6"/></g></g><g id="s20-528" transform="translate(20, 528)"><g transform="translate(-0.0, -0.0)"><circle cx="71.5" cy="56.8" fill="none" r="37.4" stroke="#5b5b5b" stroke-width="6" transform="translate(-14 .9)"/><circle cx="56.9" cy="48.9" fill="#5b5b5b" r="4.3" transform="translate(-14 .9)"/><circle cx="84.6" cy="48.9" fill="#5b5b5b" r="4.3" transform="translate(-14 .9)"/><path d="M38.1 74.3a23.5 23.5 0 0137.3.1" fill="none" stroke="#5b5b5b" stroke-linecap="round" stroke-linejoin="round" stroke-miterlimit="1.5" stroke-width="6"/></g></g><g id="s20-662" transform="translate(20, 662)"><g transform="translate(-0.0, -0.0)"><g fill="none" fill-rule="nonzero"><rect fill="#1DA1F2" height="96" rx="4" transform="translate(2 2)" width="96"/><path d="M39.3 74.9a34.9 34.9 0 0035.2-35v-1.6c2.4-1.8 4.5-4 6.1-6.4a28 28 0 01-7 2C76 32.2 78 29.8 79 27a25.3 25.3 0 01-7.9 3 12.4 12.4 0 00-21 11.2c-10-.5-19.3-5.1-25.5-12.8a12.3 12.3 0 003.8 16.4c-2 0-3.9-.6-5.6-1.5v.1a12 12 0 009.9 12c-1.8.6-3.7.7-5.6.3 1.6 5 6.3 8.5 11.6 8.6a24.9 24.9 0 01-18.3 5 35.1 35.1 0 0019 5.6" fill="#FFF"/></g></g></g></svg>