<?xml version="1.0" ?><svg height="888.0px" preserveAspectRatio="none" viewBox="0 0 169.0 888.0" width="169.0px" xmlns="http://www.w3.org/2000/svg" xmlns:xlink="http://www.w3.org/1999/xlink"><g id="s20-20" transform="translate(20, 20)"><g transform="translate(-0.0, -0.0)"><title>Slice 1</title><g fill="none" fill-rule="evenodd"><path d="M28.3 29.7c1 0 1.7-.7 1.7-1.6V1.6c0-.9-.7-1.6-1.7-1.6H1.7C.7 0 0 .7 0 1.6v26.5c0 .9.7 1.6 1.7 1.6h26.6z" fill="#99BBCF"/><path d="M22.5 7.5h-15c-1 0-1.8.8-1.8 1.8v11c0 1.1.8 2 1.8 2h15c1 0 1.8-.9 1.8-2v-11c0-1-.8-1.8-1.8-1.8zm0 3.7L15 15.8l-7.5-4.6V9.3L15 14l7.5-4.6v1.9z" fill="#FFF" fill-rule="nonzero"/></g></g></g><g id="s20-70" transform="translate(20, 70.0)"><g transform="translate(-0.0, -0.0)"><title>Slice 1</title><g fill="none" fill-rule="evenodd"><path d="M28.3 29.7c1 0 1.7-.7 1.7-1.6V1.6c0-.9-.7-1.6-1.7-1.6H1.7C.7 0 0 .7 0 1.6v26.5c0 .9.7 1.6 1.7 1.6h26.6z" fill="#3D5A98"/><path d="M20.7 29.7V18.2h3.9l.6-4.5h-4.5V11c0-1.3.4-2.2 2.2-2.2h2.4v-4l-3.5-.2c-3.4 0-5.8 2-5.8 6v3.2h-3.9v4.5h4v11.5h4.6z" fill="#FFF"/><path d="M28.3 29.7c1 0 1.7-.7 1.7-1.6V1.6c0-.9-.7-1.6-1.7-1.6H1.7C.7 0 0 .7 0 1.6v26.5c0 .9.7 1.6 1.7 1.6h26.6z" fill="#3D5A98"/><path d="M20.7 29.7V18.2h3.9l.6-4.5h-4.5V11c0-1.3.4-2.2 2.2-2.2h2.4v-4l-3.5-.2c-3.4 0-5.8 2-5.8 6v3.2h-3.9v4.5h4v11.5h4.6z" fill="#FFF"/></g></g></g><g id="s20-120" transform="translate(20, 120.0)"><g transform="translate(-0.0, -0.0)"><defs><path d="M0 .4h82.5V103H0z" id="uid_0"/></defs><g fill="none" fill-rule="evenodd"><g transform="translate(0 -.4)"><mask fill="#fff" id="uid_1"><use xlink:href="#uid_0"/></mask><path d="M55.2 1.5C28.3-1.2 1-1 .3 32.5c-.2 14.8-.8 30.9.9 45.7C3 94 11.2 100 26.5 101.8c12 1.4 29.5 2.6 40.9-2.4 11.5-5 12.5-16.7 13.1-27.9C81.9 45 90.8 5 55.2 1.5" fill="#FFF" mask="url(#uid_1)" opacity=".5"/></g><path d="M36 24v.1a1.8 1.8 0 0 0 .5.2h.6a3.3 3.3 0 0 0 .8 0l.1-.1.3-.2h.1l.4-.3 1.5-1.5v.3a29 29 0 0 0 .2 6.4v1c.2 1.5.3 3.1 0 4.7a27 27 0 0 0 0 4.9l.2 1.8a2.3 2.3 0 0 0 3.3 2 2 2 0 0 0 .6-.6 2.5 2.5 0 0 0 .3-.5l.1-.3a4.7 4.7 0 0 0 .3-1v-3.3l-.2-1.9v-.4l-.4-8.2-.1-2-.2-2.3h-.3l.3-.2V22l1.5 1.5.3.3h.2a2 2 0 0 0 .4.2l.3.1h.8a2.6 2.6 0 0 0 .5-.1l.3-.2.4-.4.2-.2a1.7 1.7 0 0 0 0-2.5l-.4-.3-.3-.4-1.5-1.5-.6-.6-.7-.7-.4-.4-.2-.2-.5-.3V16l-.6-.4-.7-.4h-.1l-.5-.2-.2-.1h-.4l-.3-.1h-.4a2 2 0 0 0-.6.2l-.6.4-4.9 5.1c-.8.9-.8 2.3.2 3.2l.3.2" fill="#FFF"/><path d="M58.7 36.6l.1-5c0-.6-.1-1.3-.5-1.8-.2-1-.7-1.8-1.3-2.2a3 3 0 0 0-.8-.4 3.8 3.8 0 0 0-1.1-.2h-.8c-1.9 0-5 0-5 2.7 0 1.2 1 2.2 2.2 2.2h1c.4 0 .8.2 1.2.5.3.3.5.7.4 1.2v5.7c.1 3.6.2 7.3-.3 10.9-.2 2-1.5 2.5-3.7 2.5h-3.8a785.7 785.7 0 0 1-13.8 0c-1 0-1.7-.8-1.7-1.7l.2-5.5c.1-2.6.3-5.3.1-8v-1c-.3-1.4-.5-3.3.2-4.1.3-.3.7-.5 1.2-.5h1c1.3 0 2.3-1 2.3-2.2 0-1.1-.8-2-2-2.2H32.1v.3-.3h-.2c-1.8.1-3 .4-3.9.8-1.4.7-1.5 2.6-1.6 4v.1l-.2 1.2v19.3l.1.8v.3a4 4 0 0 0 .6 1.3l.5.5h.1l.5.4h.1a4.8 4.8 0 0 0 1.3.6h.2l.6.2h.1a11.6 11.6 0 0 0 2.4.3 69.7 69.7 0 0 0 3.8 0h12.7A137.8 137.8 0 0 0 55 57a6 6 0 0 0 2-.8c1.6-1.1 1.7-3.2 1.7-5.4l.1-1.4c.3-4.2.3-8.5 0-12.8" fill="#FFF"/></g></g></g><g id="s20-243" transform="translate(20, 243.0)"><g transform="translate(-0.0, -0.0)"><title>mainBtn</title><path d="M78.7 65c-2.4 2.6-5 5-7.6 7.4-1.4-.2-1-1.6-1-3v-7c0-4.4-.2-8.9 0-13.3s0-5 0-9.5c0-2.8 1.2-8.4-1.3-10.5-2.5-2-8.6-1.1-10 1.8-.7 1.6-.2 3.6-.1 5.3 0 2.1 0 4.3.3 6.5.6 5.9 1 7.9 1.1 13.8l.3 9c0 1.9.5 4.4-.1 6.3l-10.5-10c-2.8-2.8-5.3-6-9.6-3.4-3.5 2.1-4.3 4.8-1.5 7.9 2.6 3 5.8 5.7 8.7 8.4 3.2 3 7 5.3 10.2 8.3 2.3 2.1 5.7 6.7 9.4 5.4 1.7-.6 3-1.9 4.4-3l5.3-4.1c3.6-2.9 6.5-6.4 9.7-9.5a94 94 0 0 1 5-4.5c1.3-1.1 3-2.4 3.3-4.2.8-4-5.4-8.2-8.7-4.9-2.3 2.4-5 4.3-7.3 6.8z" fill="#FFF" fill-rule="evenodd"/></g></g><g id="s20-417" transform="translate(20, 417.0)"><g transform="translate(-0.0, -0.0)"><title>Group 6</title><defs><path d="M0 0h128.5v154H0z" id="uid_2"/></defs><g fill="none" fill-rule="evenodd"><g><mask fill="#fff" id="uid_3"><use xlink:href="#uid_2"/></mask><path d="M94.4 153.5c-12.5 1.3-25.2-.2-37.7 0-8.8.1-17.7 1-26.4-.5-22.1-4-30-21.8-29.7-42.4.3-22-1-44.2-.4-66.2C.8 23.1 7.3 5.6 30.4 2.6c22.4-3 49.4-4.2 71.5 1.2 20.3 4.9 25.7 18.7 26.3 38.3.6 23.6.1 47.6-.5 71.2-.5 22-9.7 37.8-33.3 40.2" fill="#6AA9FD" mask="url(#uid_3)"/></g><path d="M97.6 52.1v-.5C96 45.2 95.4 38.8 94 32.5c-.2-1.3-1.6-4-3.1-3.2-.7.3-2.5 2.2-3 2.9a42 42 0 0 1-2.8 3 31.7 31.7 0 0 0-3.5-3l-1-.7-.3-.2A30.9 30.9 0 0 0 53 27.6a31 31 0 0 0-18.4 15 22.2 22.2 0 0 0-3.4 10.9c0 4.2-.8 8.5.3 12.6 1 3.8 3.2 6.1 5.4 9.2 2 3 3.7 5.3 6.8 7.2.8.6 1.8 1 2.6 1.5 6 4 13.3 5.7 21 4.3a35.1 35.1 0 0 0 25.4-18.6c2.2-4.5-6.7-4.3-6.7-4.2-.7.7-1.7 1.7-2.2 2.6-.7 1.3-1.9 2.5-2.9 3.6-2 2.3-4.4 4.3-7 5.9-4.8 2.7-10.8 4.2-16 2.2A29 29 0 0 1 47.2 72c-4.5-5-7-11.7-6.3-18.3.6-7 5.3-12.3 11-15.9 4.3-2.6 10.6-4.6 15.5-3.2A53 53 0 0 1 79 40.6c-2 1.6-4.7 4.4-6.6 6-1.8 1.6-3.5 5.5.2 6L85.2 54c3.5.4 6.7 1.8 10.1 2.2 2.5.3 2.6-2.2 2.3-4" fill="#FFF"/></g></g></g><g id="s20-591" transform="translate(20, 591.0)"><g transform="translate(-0.0, -0.0)"><title>search</title><g fill="#FFF" fill-rule="evenodd"><path d="M58.9 102c-16 1.6-43 5.2-53.4-10.5C-3.2 78 1 51.2 1.1 35.9 1.2 18 3.9 1.5 25.3.6c14.7-.7 42.2-3 52 11 10.4 15.1 6 45 4.8 62.2-1 15.3-6.4 26.7-23.2 28.3" opacity=".5"/><path d="M35.7 42.3a10.5 10.5 0 0 1-7.2-12.6c1.8-6 9.5-8.7 15-6.3 10.9 4.9 3 21.8-7.8 18.9m26.7 11.5c0-1.5-2.3-3-3.3-4l-2.4-2.4c-.7-1-1.6-1.7-2.5-2.5-.6-.5-2.7-1.9-2.8-2.6-.3-1.3 1.6-3.4 2-4.8 1.4-3.7 1.2-8-.6-11.4A17.3 17.3 0 0 0 33.1 18c-8.7 2.8-12.7 13.6-8.4 21.5 4.5 8.3 15.1 11 23 5.5l7 7.1c1.1 1.1 3 3.5 4.5 4.1 1.8.8 3.2-.6 3.2-2.4"/></g></g></g><g id="s20-715" transform="translate(20, 715.0)"><g transform="translate(-0.0, -0.0)"><title>share</title><g fill="#FFF" fill-rule="evenodd"><path d="M55.2 1C28.3-1.7 1-1.4.3 32 .1 47-.5 63 1.2 77.7c1.8 16 10 21.9 25.3 23.6 12 1.4 29.5 2.7 40.9-2.4 11.5-5 12.5-16.6 13.1-27.8C81.9 44.5 90.8 4.6 55.2 1" opacity=".5"/><path d="M58.8 54.3c.5-3-1.4-6-4.4-6.6-2.5-.7-5.2.5-6.8 2.6-2.2-1-4.2-2.7-6.2-4-1.4-1-2.8-1.8-4.2-2.5-1.4-.8-3-1.2-4.3-2 .2-1 .2-2 0-3 1.5 0 9.4-7.1 14-10.7 1 .6 2.1 1 3.3 1 3.5.5 7.6-2.1 7-6 .2-1.6-.9-3.3-2-4.2-1.8-2.7-6.1-3-8.6-1.2a6.4 6.4 0 0 0-2 7.6c-4.5 3.5-8.8 7-13 10.7-1.1-1.3-3-2.2-4.7-2-.6 0-1 .1-1.5.3l-.6.2c-2.3.6-4.5 2.1-4.8 4.6a3 3 0 0 0-.2 1.5c0 .8.2 1.5.5 2.2.7 2 3.2 3.4 5 3.8 2 .4 4.4-.2 5.9-1.7 4.5 2.7 10.4 6.7 15.2 8.7-.3 3 2 6.5 5 6.9 3.8 1.1 7.4-2.6 7.4-6.2"/></g></g></g><g id="s20-838" transform="translate(20, 838.0)"><g transform="translate(-0.0, -0.0)"><title>Slice 1</title><g fill="none" fill-rule="evenodd"><rect fill="#1DA1F2" height="30" rx="1.3" width="30"/><path d="M11.7 22.8c7 0 11-5.9 11-11v-.5c.7-.5 1.4-1.2 1.9-2-.7.4-1.5.6-2.2.6.8-.4 1.4-1.2 1.7-2-.8.4-1.6.7-2.5.9a3.9 3.9 0 0 0-6.6 3.5 11 11 0 0 1-8-4c-1 1.7-.5 4 1.2 5-.6 0-1.2-.1-1.7-.4 0 1.9 1.3 3.5 3 3.8-.5.2-1 .2-1.7 0 .6 1.6 2 2.7 3.7 2.8A7.8 7.8 0 0 1 5.7 21a11 11 0 0 0 6 1.8" fill="#FFF"/></g></g></g></svg>