<?xml version="1.0" ?><svg height="460.0px" preserveAspectRatio="none" viewBox="0 0 120.0 460.0" width="120.0px" xmlns="http://www.w3.org/2000/svg" xmlns:xlink="http://www.w3.org/1999/xlink"><g id="s20-20" transform="translate(20, 20)"><g transform="translate(-0.0, -0.0)">
<path clip-rule="evenodd" d="M12 12H36C37.65 12 39 13.35 39 15V33C39 34.65 37.65 36 36 36H12C10.35 36 9 34.65 9 33L9.015 15C9.015 13.35 10.35 12 12 12ZM24 25.5L36 18V15L24 22.5L12 15V18L24 25.5Z" fill="white" fill-rule="evenodd"/>
</g></g><g id="s20-88" transform="translate(20, 88.0)"><g transform="translate(-0.0, -0.0)">
<path d="M48 24C48 10.7438 37.2562 0 24 0C10.7438 0 0 10.7438 0 24C0 35.9813 8.775 45.9094 20.25 47.7094V30.9375H14.1562V24H20.25V18.7125C20.25 12.6984 23.8313 9.375 29.3156 9.375C31.9406 9.375 34.6875 9.84375 34.6875 9.84375V15.75H31.6594C28.6781 15.75 27.75 17.6016 27.75 19.5V24H34.4062L33.3422 30.9375H27.75V47.7094C39.225 45.9094 48 35.9813 48 24Z" fill="#1877F2"/>
<path d="M33.3422 30.9375L34.4062 24H27.75V19.5C27.75 17.6016 28.6781 15.75 31.6594 15.75H34.6875V9.84375C34.6875 9.84375 31.9406 9.375 29.3156 9.375C23.8313 9.375 20.25 12.6984 20.25 18.7125V24H14.1562V30.9375H20.25V47.7094C21.4734 47.9016 22.725 48 24 48C25.275 48 26.5266 47.9016 27.75 47.7094V30.9375H33.3422Z" fill="white"/>
</g></g><g id="s20-156" transform="translate(20, 156.0)"><g transform="translate(-0.0, -0.0)">
<path clip-rule="evenodd" d="M32.8261 14.1309H25.3478V17.87H32.8261C35.9109 17.87 38.4348 20.3939 38.4348 23.4787C38.4348 26.5635 35.9109 29.0874 32.8261 29.0874H25.3478V32.8265H32.8261C37.9861 32.8265 42.1739 28.6387 42.1739 23.4787C42.1739 18.3187 37.9861 14.1309 32.8261 14.1309ZM21.6087 29.0874H14.1304C11.0457 29.0874 8.52174 26.5635 8.52174 23.4787C8.52174 20.3939 11.0457 17.87 14.1304 17.87H21.6087V14.1309H14.1304C8.97043 14.1309 4.78261 18.3187 4.78261 23.4787C4.78261 28.6387 8.97043 32.8265 14.1304 32.8265H21.6087V29.0874ZM16 21.6091H30.9565V25.3483H16V21.6091Z" fill="white" fill-rule="evenodd"/>
</g></g><g id="s20-224" transform="translate(20, 224.0)"><g transform="translate(-0.0, -0.0)">
    <!-- Generator: Sketch Beta 51.3 (57541) - http://www.bohemiancoding.com/sketch -->
    <title>replayTexture</title>
    <desc>Created with Sketch Beta.</desc>
    <defs>
        <polygon id="uid_0" points="0 0 58 0 58 39 0 39"/>
    </defs>
    <g fill="none" fill-rule="evenodd" id="uid_1" stroke="none" stroke-width="1">
        <g fill="#FFFFFF" id="uid_2">
            <path d="M75.585,80 C78.0233333,80 80,78.0233539 80,75.585046 L80,4.41578734 C80,1.97664608 78.0233333,0 75.585,0 L4.41583333,0 C1.97666667,0 0,1.97664608 0,4.41578734 L0,75.585046 C0,78.0233539 1.97666667,80 4.41583333,80 L75.585,80 Z" id="uid_3"/>
        </g>
        <g id="uid_4" transform="translate(11.000000, 20.000000)">
            <mask fill="white" id="uid_5">
                <use xlink:href="#uid_0"/>
            </mask>
            <g id="uid_6"/>
            <path d="M57.9987236,24.2539094 C58.0171201,23.6539022 57.8356083,23.0961404 57.5222552,22.6345023 C57.5056984,22.5763383 57.4928209,22.5169499 57.4738112,22.4600104 C57.4713583,22.2787838 57.4529619,22.1024551 57.4173954,21.9310245 C57.575605,21.5985716 57.6718798,21.2312202 57.6841441,20.8399911 C57.6939555,20.5301915 57.6399926,20.2356982 57.5535292,19.9552867 C57.5627274,19.4660972 57.4357918,19.009357 57.2181004,18.6071073 C57.2334308,18.5036367 57.2561197,18.4032273 57.2591858,18.2966955 C57.2726765,17.8570984 57.1721092,17.4438281 56.9997957,17.0697421 C56.9654556,16.7587179 56.8796055,16.4660614 56.7496038,16.1948337 C56.7207827,15.9652391 56.6729519,15.7423793 56.590781,15.5336013 C56.5631863,15.0444118 56.4178542,14.5864471 56.1645963,14.197667 C56.1590773,13.8829694 56.1087937,13.563986 55.9879902,13.2529618 C55.9419991,13.1335727 55.8776115,13.0270408 55.8169031,12.9180599 C55.7868556,12.7588743 55.7463834,12.5990765 55.685675,12.4423399 C55.4679836,11.8821292 55.0822711,11.4400831 54.6125481,11.1376305 C54.6070291,10.8229329 54.5567454,10.5039495 54.4353288,10.1935376 C54.3556108,9.98598412 54.2464584,9.79985945 54.1250418,9.62475532 C54.1035793,9.55618307 54.094381,9.48638632 54.0680128,9.41842633 C53.8423495,8.83801124 53.4364009,8.38739363 52.9433757,8.08432879 C52.9421493,8.08187978 52.9421493,8.07881852 52.9409228,8.07636951 C52.8777616,7.91473493 52.7980436,7.76412089 52.7097406,7.62207838 C52.7551185,7.20023661 52.7152595,6.76308854 52.5503046,6.34002227 C52.3681796,5.87103709 52.0640248,5.49021622 51.697322,5.19755967 C51.6593026,5.14368148 51.6310947,5.08551752 51.589396,5.03286383 C51.0509929,4.36673344 50.2636243,4.03060698 49.4682839,4.02509671 C49.31498,3.97366753 49.1604498,3.93325888 49.0034666,3.9099933 C48.72568,3.7703998 48.4368556,3.67856197 48.141899,3.63876557 C47.9340189,3.19794399 47.6151469,2.80365357 47.1785375,2.51589504 C46.8602787,2.30589254 46.5144252,2.1718093 46.1618264,2.10691057 C46.0177207,1.95262302 45.8582847,1.8081315 45.6737069,1.68690556 C44.9476598,1.20751209 44.07996,1.12975606 43.3116011,1.37955496 C43.2104206,1.37282018 43.1104664,1.36792217 43.0098991,1.37282018 C42.8731521,1.33241154 42.7370182,1.30057443 42.5990448,1.28220686 C42.5898465,1.2791456 42.5794219,1.27730884 42.5708369,1.27424758 C42.2863049,1.05200003 41.9576215,0.886691939 41.5915318,0.78934384 C41.2757259,0.573831066 40.9151552,0.416482251 40.5141124,0.347297752 C39.8095278,0.226071817 39.1264059,0.39137991 38.5677666,0.748935194 C38.3654055,0.658934121 38.1544594,0.584851605 37.9263433,0.545667464 C37.8711539,0.535871429 37.8178042,0.540157195 37.7638412,0.534034673 C37.5479894,0.434237564 37.3229393,0.350971265 37.0782664,0.308725864 C36.9813783,0.291582802 36.8857167,0.294644063 36.7900551,0.287909289 C36.6116094,0.216275782 36.4245787,0.159336327 36.2271234,0.125662456 C35.8193351,0.0552534533 35.4195187,0.0858660632 35.0442308,0.187499928 C34.8755966,0.121988943 34.6977641,0.0717842627 34.5125731,0.0399471483 C33.6258636,-0.113115901 32.770428,0.183826415 32.1633448,0.756894473 C31.8322085,0.683424209 31.4839021,0.666281148 31.1288504,0.723832854 C30.6014851,0.810160414 30.1397339,1.04648976 29.7662857,1.37404469 C29.6884074,1.38016721 29.6123686,1.37526919 29.5344903,1.38812649 C29.5056692,1.39302451 29.4799141,1.4046573 29.4517062,1.41016757 C29.1898632,1.37526919 28.9206616,1.36486091 28.6465544,1.40955532 C28.249804,1.47445405 27.891073,1.62445584 27.5771067,1.83262159 C27.3839438,1.8222133 27.1883281,1.83017258 26.9902595,1.86200969 C26.3684591,1.96364356 25.838641,2.27283092 25.4388245,2.6983462 C25.4333056,2.6995707 25.4277866,2.70201971 25.4216545,2.70324421 C25.1389622,2.6585498 24.8476848,2.644468 24.5496621,2.69344818 C24.3307442,2.72895881 24.1259303,2.79630655 23.9297014,2.87834834 C23.8573419,2.88447086 23.7862089,2.87957285 23.7138495,2.89181789 C22.6266186,3.06937103 21.8018438,3.86346213 21.520378,4.85531069 C21.4547639,4.9128624 21.3842441,4.96184257 21.3235358,5.02612905 C21.1279201,5.2342948 20.9838145,5.46817514 20.8654639,5.71185152 C20.8574921,5.72042305 20.8470674,5.72593332 20.8390956,5.73450485 C20.6710746,5.91328249 20.5416862,6.11287671 20.430081,6.31981795 C20.3945145,6.35410407 20.3528158,6.37981867 20.319089,6.4165538 C20.0664442,6.68533251 19.8806399,6.99145861 19.7567704,7.31595228 C19.6782789,7.41207587 19.5967212,7.50697496 19.5329468,7.61105784 C19.1588854,7.75432485 18.8068997,7.97228663 18.5137828,8.283923 C18.1200985,8.70209126 17.8846238,9.21087283 17.8024529,9.73863423 C17.4964584,9.88128899 17.2100868,10.0784342 16.9654138,10.3386414 C16.6661647,10.6564003 16.4680961,11.0280374 16.3491323,11.4192665 C16.168847,11.6721267 16.0382321,11.9458034 15.9548348,12.2329497 C15.9401177,12.255603 15.921108,12.2739706 15.9063908,12.2972362 C15.7205865,12.610097 15.6065285,12.9456112 15.5550184,13.284799 C15.2674203,13.5756188 15.0343985,13.9264393 14.8970382,14.3403218 C14.808122,14.6066515 14.776848,14.8760424 14.7707159,15.1423721 C14.7658101,15.1576784 14.7566119,15.1705357 14.7517062,15.1852298 C14.5977891,15.6505415 14.5867512,16.1250369 14.6756675,16.5738178 C14.625997,16.6772884 14.5714208,16.77831 14.5340147,16.8903522 C14.3046721,17.5815849 14.3721258,18.2966955 14.6578842,18.9083354 C14.2341524,19.2316046 13.8987235,19.6803854 13.7184382,20.2240654 C13.4811238,20.9397882 13.5559361,21.6836746 13.868676,22.3093964 C13.669381,22.6834825 13.5430586,23.102263 13.5369264,23.5553296 C13.5301811,24.0690092 13.6742867,24.5459537 13.9146671,24.9598361 C13.9042425,25.054123 13.8840064,25.1453486 13.8827799,25.2420844 C13.8821667,25.2873911 13.8925914,25.3302487 13.894431,25.3755554 C13.8239112,25.612497 13.7730144,25.8573979 13.7699483,26.1163805 C13.7674954,26.304342 13.7840522,26.4880176 13.8177791,26.6655708 C13.7202778,26.4702623 13.6049933,26.2804641 13.4565952,26.1059723 C13.2419698,25.8549489 12.9868722,25.6608649 12.7139913,25.5071896 C12.6085183,25.2684112 12.4803563,25.0363677 12.3012974,24.8275897 C11.8757259,24.3298286 11.3078884,24.0341108 10.7106166,23.9239054 C10.4291507,23.6110445 10.091269,23.383899 9.7257926,23.2314482 C9.64239531,22.772259 9.45045888,22.3259272 9.12484149,21.9451063 C9.04083098,21.8465337 8.94455616,21.7663287 8.8507342,21.6824501 C8.76917655,21.5434689 8.67903388,21.4069366 8.57110797,21.2802004 C8.16761222,20.8093785 7.63840732,20.5173342 7.07608878,20.393047 C7.0730227,20.3893735 7.07056984,20.3844755 7.06689055,20.3801897 C6.87495412,20.1554931 6.64806442,19.9810013 6.40829719,19.8340607 C6.29975806,19.5591595 6.15626565,19.2940543 5.95329135,19.0565004 C5.3112548,18.3058792 4.35341232,17.9948551 3.44278742,18.1356731 C2.60329551,17.9164868 1.67366094,18.09404 0.963557482,18.6995574 C-0.190513936,19.6834467 -0.327260975,21.4142837 0.658176204,22.5665423 C0.913887033,22.8659336 1.22233439,23.0930792 1.55653679,23.2541015 C1.64974554,23.4298179 1.75889788,23.600024 1.89380527,23.7573728 C2.1734315,24.0843155 2.51621892,24.3200326 2.88660104,24.4810549 C2.96999833,24.6255464 3.06382029,24.7663644 3.17603871,24.8979987 C3.60590272,25.4000455 4.17925914,25.6969878 4.78388954,25.8047442 C4.88997581,26.0484205 5.01997748,26.2841376 5.20148924,26.4965892 C5.24380111,26.5455693 5.29347156,26.5816922 5.33762307,26.6263866 C5.43757718,26.8314911 5.55531454,27.0304731 5.70984482,27.212312 C5.98211247,27.5300709 6.3132488,27.7621145 6.6713666,27.9231368 C6.75782998,28.0780366 6.85901052,28.2268139 6.97920074,28.3664074 C7.236138,28.6670232 7.546425,28.8953933 7.88124062,29.0551911 C7.97444937,29.229683 8.08360171,29.3986646 8.21666946,29.5554011 C8.57417405,29.9729571 9.03101953,30.2521441 9.52097865,30.3984724 C9.55961122,30.4492894 9.58781913,30.5043921 9.62951778,30.5539845 C9.96310697,30.9439891 10.3849992,31.2072576 10.8387786,31.3603206 C10.9411856,31.7442028 11.1196313,32.1133908 11.394965,32.4360477 C11.5586935,32.6264582 11.7469506,32.778909 11.944406,32.9136045 C11.9720007,32.9491151 11.9916236,32.9882992 12.0204447,33.0231976 C12.1909186,33.2215673 12.3877607,33.3783039 12.5950275,33.5160606 C12.6171033,33.543612 12.6318205,33.5742246 12.6545094,33.6017759 C13.1193267,34.1448436 13.7527783,34.454031 14.4113716,34.534236 C14.7676498,34.8917913 15.1956741,35.1397534 15.6574254,35.2597549 C16.106299,35.8407822 16.7796096,36.2467054 17.5688178,36.3214002 C17.7331595,36.3367065 17.893822,36.3318085 18.0520316,36.3183389 C18.9154389,36.6183425 19.906395,36.4891573 20.672301,35.8775173 C21.1365051,35.5071048 21.4424996,35.0154663 21.5933506,34.4852558 C21.7159937,34.3089272 21.8171742,34.1228025 21.8944394,33.9268818 C22.0066578,33.7946354 22.1017062,33.6532051 22.1851035,33.5056523 C22.3960496,33.4119777 22.6014768,33.3005478 22.7903471,33.1499338 C23.1576631,32.8572773 23.41644,32.4844157 23.5893668,32.0815537 C23.7040381,32.014206 23.820549,31.9480827 23.9272485,31.8629797 C24.1958368,31.6480792 24.4067829,31.3897087 24.5711247,31.1105217 C24.5790965,31.103787 24.5858418,31.0958277 24.5932004,31.0890929 C24.8115051,30.9941938 25.0242909,30.8809272 25.2186802,30.7254151 C25.3505215,30.6194955 25.465806,30.5013308 25.5731187,30.3782681 C25.6785917,30.3152061 25.7859044,30.2558177 25.8852453,30.1768371 C26.1170408,29.991937 26.2991657,29.7709139 26.453696,29.5358091 L26.4555357,29.5345846 C26.7547848,29.295194 26.9896463,29.0062109 27.1601202,28.688452 C27.4121517,28.4478369 27.6108335,28.1723234 27.7518731,27.8704831 C28.2234357,27.8043599 28.6858001,27.6255822 29.0850034,27.3065988 C29.6473219,26.857818 29.9772318,26.2327085 30.0771859,25.5739251 L30.0968088,25.554333 C30.2844527,25.4655565 30.4665777,25.3596368 30.6358252,25.2243291 C30.8522902,25.0510617 31.0246037,24.845345 31.1742283,24.6279954 C31.4716378,24.5281983 31.759849,24.3849313 32.0198524,24.1779901 C32.3117429,23.944722 32.5423119,23.663086 32.7115594,23.3545109 C33.2984065,22.8059329 33.5945896,22.0571485 33.5780328,21.2991802 C33.9079426,20.4236596 33.7895921,19.4054842 33.1622727,18.6218014 C32.2142417,17.4389301 30.4855874,17.2472952 29.3008552,18.1938371 C28.8458494,18.5569026 28.5404681,19.0369084 28.386551,19.555486 C28.0707451,19.6540586 27.765977,19.8052849 27.4924829,20.0244712 C27.0380903,20.3875367 26.732709,20.8663179 26.578792,21.3848956 C26.5499708,21.4063244 26.5174704,21.4197939 26.4892625,21.4424473 C26.4819039,21.4479575 26.4769982,21.4559168 26.4696396,21.4614271 C26.2022777,21.5612242 25.9428876,21.6910217 25.7080261,21.8789831 C25.2468881,22.2469466 24.9415068,22.7342994 24.7894294,23.2608363 C24.7661272,23.2785916 24.7397589,23.2896121 24.7164567,23.3079797 C24.6324462,23.3747152 24.5656057,23.4536957 24.4914067,23.5277782 C24.3289046,23.6110445 24.1713082,23.7114539 24.0229101,23.8302308 C23.6568205,24.1222751 23.3980436,24.4933 23.2257301,24.8955497 C23.080398,25.0584087 22.9516228,25.2316761 22.8510554,25.4190253 C22.698978,25.5647413 22.5665235,25.7220901 22.4543051,25.8922962 C22.4536918,25.8929085 22.4530786,25.8929085 22.4524654,25.8935207 C22.3200109,25.9988281 22.2053396,26.1169928 22.0980269,26.2400555 C21.9925538,26.3031175 21.8846279,26.3625059 21.7859002,26.4414865 C21.7435884,26.4757726 21.711088,26.518018 21.671229,26.5541409 C21.4529243,26.64904 21.2407517,26.7623066 21.0457492,26.9178187 C20.7777741,27.1321069 20.566828,27.3904774 20.401873,27.6702766 C20.3767312,27.6923177 20.3546555,27.7168078 20.3301268,27.7400734 C20.1461622,27.8257887 19.9683297,27.9292593 19.8021484,28.0590568 C19.8082805,27.9898723 19.8248373,27.9231368 19.8260638,27.8521155 C19.8272902,27.7615022 19.8101202,27.6745624 19.8027616,27.5857858 C19.8487527,27.3917019 19.8794135,27.1914954 19.8818664,26.9839419 C19.8898382,26.3833225 19.698515,25.8298465 19.3771901,25.3743309 C19.4894085,25.0798376 19.5623811,24.7651399 19.5666736,24.4314625 C19.5703529,24.1571735 19.5212957,23.8969663 19.4495495,23.6453307 C19.5728058,23.192264 19.5770983,22.7336871 19.4746913,22.3020493 C19.4912481,22.1257207 19.4918614,21.9506166 19.4753045,21.7779615 C19.5764851,21.6083676 19.6641749,21.4283655 19.7291757,21.2324448 C19.7911105,21.0450956 19.8303563,20.8559097 19.8505924,20.667336 C19.8898382,20.5803962 19.9370558,20.4989666 19.9671033,20.4059043 C20.0872935,20.0465122 20.1271525,19.6797732 20.0983314,19.3246669 C20.1437094,19.1391545 20.1688512,18.9554788 20.1737569,18.7711909 C20.3748916,18.5226165 20.5410729,18.2403683 20.6477724,17.9195481 C20.8354163,17.3526026 20.8219256,16.7691262 20.655131,16.2395281 C20.8538128,15.9921782 21.019381,15.7117667 21.1254672,15.3927833 C21.2597614,14.9886968 21.2849032,14.5778756 21.2333932,14.1817484 C21.4621225,14.0507265 21.6804272,13.8964389 21.8711372,13.6943957 C22.0409979,13.513169 22.1716127,13.3111258 22.2838312,13.1017356 C22.3169448,13.0692862 22.3561906,13.0447961 22.388691,13.01051 C22.633364,12.7503028 22.8124229,12.4539727 22.9362924,12.1411119 C23.1362006,12.0174369 23.3287502,11.8760067 23.4973845,11.6966168 C23.7984733,11.3776334 23.9965418,11.0023228 24.1155056,10.6098691 C24.2485734,10.4212954 24.3632447,10.2241502 24.4435759,10.0153722 C24.5539546,9.87945223 24.6502295,9.73863423 24.7305607,9.58924469 C24.7667404,9.55495857 24.8078258,9.52924398 24.8421659,9.49250884 C25.0377816,9.28495535 25.1818872,9.05046276 25.300851,8.80678638 C25.3082096,8.79821485 25.3186343,8.79270458 25.3266061,8.78413305 C25.3897673,8.71678531 25.4363716,8.64025378 25.4921742,8.56800802 C25.6381195,8.45168011 25.7699608,8.32310714 25.8864718,8.18290139 C26.3218547,8.34698498 26.7995495,8.41310822 27.2913483,8.33290318 C28.0738112,8.20494247 28.7189138,7.7549371 29.1273152,7.14452166 C29.3744411,7.06799014 29.6080761,6.96635627 29.8177958,6.82982403 C30.0158644,6.84084457 30.216999,6.8353343 30.4205866,6.80227268 C30.4935592,6.79002764 30.5591732,6.76370079 30.6290798,6.74594548 C30.8473845,6.76370079 31.068142,6.76370079 31.2931921,6.72696566 C31.5844694,6.67920999 31.8499917,6.57696387 32.0989572,6.44900316 C32.3920741,6.4998201 32.6950025,6.51451415 33.0052896,6.46369722 C33.0702904,6.45328893 33.1279326,6.42879884 33.1910938,6.41410479 C33.4167571,6.43492136 33.6460997,6.43675812 33.8809612,6.39879848 C34.247664,6.33879777 34.5843193,6.20716355 34.8823419,6.02348789 C35.3299892,6.02287563 35.7561739,5.91083348 36.1375939,5.71307602 C36.1394336,5.71307602 36.1400468,5.71430053 36.1418864,5.71430053 C36.1964626,5.72348431 36.2498123,5.7198108 36.3043885,5.72593332 C36.5196271,5.82573043 36.7452904,5.90899673 36.9899633,5.95062987 C36.9930294,5.95124213 36.9967087,5.95124213 36.9997748,5.95185438 C37.2560988,6.09022338 37.5314326,6.20104102 37.834361,6.25308246 C37.9502587,6.27328678 38.0630903,6.27206228 38.1777616,6.27757255 C38.3396505,6.33879777 38.5088979,6.3883902 38.6861172,6.41900281 C39.2539547,6.51696316 39.8095278,6.4318601 40.2964209,6.2090003 C40.5834057,6.38410443 40.9053438,6.5139019 41.2567162,6.57512712 C41.2941224,6.58124964 41.3290756,6.57757613 41.3664818,6.58247414 C41.6920992,6.69145504 42.0287544,6.73982296 42.3629568,6.7239044 C42.6738571,6.81512998 42.9908894,6.85308962 43.3073086,6.83288529 C43.3116011,6.8353343 43.3146672,6.83900781 43.3183465,6.84206908 C43.4924996,6.95656024 43.6752378,7.0441123 43.8616553,7.1145213 C44.0652428,7.44268848 44.3344444,7.73595729 44.6778451,7.96187835 C44.8489322,8.07453275 45.0279911,8.16147256 45.2113425,8.23188157 C45.2806358,8.28759652 45.3419573,8.35004624 45.4179961,8.40025092 C45.7920575,8.64637631 46.2041382,8.77801053 46.6192851,8.82515395 C46.8057026,8.91148151 46.9957993,8.9794415 47.1901886,9.0216869 C47.2183965,9.13923933 47.2423119,9.25679175 47.2870767,9.37311967 C47.4422202,9.7723081 47.6875063,10.1065978 47.9812365,10.3802745 C48.0578884,10.519868 48.144965,10.6490532 48.2418531,10.7702792 C48.2455324,10.7812997 48.2467588,10.7923203 48.2510513,10.8027285 C48.4282706,11.2594687 48.722614,11.6323303 49.0776657,11.9219256 C49.0341274,12.3407061 49.0752128,12.7729561 49.2383281,13.1917366 C49.3977641,13.6019456 49.6516353,13.9429701 49.9570166,14.2197081 C50.1606041,14.5827736 50.4310321,14.8907365 50.7572627,15.1203311 C50.7499041,15.4687026 50.8069332,15.8250333 50.9412273,16.1703436 C51.0344361,16.4091219 51.1656642,16.6191244 51.3128359,16.8150451 C51.3453363,17.132804 51.4317997,17.4321954 51.5648674,17.7095456 C51.5660939,17.7205661 51.5654806,17.7315867 51.5667071,17.7426072 C51.3410438,18.1258771 51.1938721,18.5630252 51.1791549,19.0393574 C51.1619849,19.6050784 51.3171284,20.1352888 51.5979811,20.5810084 C51.4581679,20.895706 51.3723178,21.2397918 51.3612799,21.6046941 C51.3385909,22.33756 51.6090189,23.0079761 52.0621851,23.5143087 C51.9229852,23.7953325 51.834069,24.087989 51.7972761,24.3867681 C51.7132656,24.5624845 51.6476515,24.7412621 51.6035,24.9249378 C51.404205,25.0908581 51.2177875,25.2757583 51.0669365,25.5022916 C50.7689138,25.9492357 50.6266478,26.4506702 50.6137703,26.950268 C50.5450902,27.1351682 50.4997122,27.3237419 50.473344,27.5141523 C50.029376,27.7192568 49.630786,28.0370157 49.3401219,28.4729393 C48.9728058,29.0227417 48.8434174,29.654586 48.9047389,30.2643892 C48.7446897,30.2980631 48.5852537,30.3403085 48.4288838,30.4039827 C47.9806233,30.5864338 47.6175998,30.8809272 47.3349075,31.2323599 C47.2171701,31.2629725 47.0994327,31.2892994 46.983535,31.3358305 C46.6168322,31.4852201 46.3040923,31.7068554 46.0459287,31.9737973 C45.8503129,32.0068589 45.6553104,32.0576759 45.4639872,32.1354319 C45.1126148,32.2780867 44.8078467,32.4850279 44.5564284,32.7366636 C44.2915193,32.8713591 44.048686,33.0329936 43.8481646,33.2344246 C43.6353788,33.2338124 43.4268856,33.2558534 43.2251377,33.3023846 C42.8915485,33.271772 42.5659311,33.2987111 42.2568706,33.3832019 C42.1017271,33.3232012 41.9410646,33.271772 41.7718172,33.2399349 C41.7129485,33.2295266 41.6565327,33.2325878 41.5982772,33.2252408 C41.3879443,33.1248315 41.1671868,33.0409529 40.9268063,32.995034 C40.3816578,32.8927879 39.8450943,32.9619724 39.3673995,33.1591176 C39.3103705,33.1444235 39.257634,33.1205457 39.1993785,33.1095252 C38.6082388,32.9987075 38.0293635,33.0911576 37.524074,33.3287114 C36.3503797,33.4542231 35.3447064,34.3174987 35.1147506,35.5352684 C34.8332847,37.0236535 35.8138162,38.4581604 37.3045429,38.7391841 C37.8331345,38.8389812 38.352528,38.7734702 38.8185717,38.5897946 C38.8903179,38.6093867 38.9565452,38.6387748 39.0307443,38.6522443 C39.5194769,38.7440821 39.9983982,38.6902039 40.436234,38.5377532 C40.5410938,38.5708148 40.6422744,38.6099989 40.7526532,38.6308155 C40.7937386,38.6387748 40.8335976,38.6357135 40.8740698,38.6412238 C41.0991199,38.7544904 41.335821,38.8487773 41.5958244,38.8977574 C42.1164442,38.99633 42.6272527,38.9326558 43.0877775,38.7557149 C43.1822126,38.7520414 43.2735817,38.7367351 43.3661773,38.7238778 C43.8052395,38.9344926 44.3025572,39.0391877 44.8237903,38.986534 C45.2837019,38.9406151 45.6976223,38.7734702 46.0575797,38.5346919 C46.1305524,38.5126508 46.203525,38.5004058 46.274658,38.4710177 C46.846788,38.2383618 47.2889163,37.8299896 47.5844861,37.3383511 C47.8861881,37.323657 48.1897298,37.2697788 48.4846864,37.1491652 C48.842191,37.0040614 49.1512515,36.7909976 49.4057359,36.5326272 C49.6105499,36.4995656 49.8147506,36.4499732 50.0146588,36.3685436 C50.348248,36.2326236 50.6376857,36.0354784 50.8823587,35.7997613 C51.1129277,35.7703732 51.3428834,35.721393 51.5685467,35.6295552 C52.0781287,35.4220017 52.4883698,35.0760792 52.7808736,34.6560742 C52.9752629,34.4932151 53.1567746,34.310764 53.3051728,34.0891287 C53.3474846,34.0248422 53.3738529,33.9556577 53.411259,33.8895345 C53.5682422,33.7444307 53.7166403,33.5846329 53.8405098,33.3991204 C54.1023528,33.0066668 54.236647,32.5713555 54.2777324,32.1335952 C54.4058945,31.8452244 54.4745746,31.5446085 54.4978768,31.2415437 C54.5316036,31.2029718 54.5634908,31.1637877 54.595378,31.1227668 C54.9032122,30.9250093 55.1773195,30.6641899 55.3937845,30.3409207 C55.7040715,29.8762213 55.85063,29.3515212 55.8524696,28.8323313 C56.1449734,28.6370228 56.4043635,28.3841627 56.6116303,28.0743631 C56.9881446,27.5110911 57.1156934,26.8608792 57.0427208,26.2376065 C57.6031997,25.7539272 57.9735818,25.0522862 57.9987236,24.2539094" fill="#000000" id="uid_7" mask="url(#uid_5)"/>
        </g>
    </g>
</g></g><g id="s20-324" transform="translate(20, 324.0)"><g transform="translate(-0.0, -0.0)">
<mask height="35" id="uid_8" mask-type="alpha" maskUnits="userSpaceOnUse" width="36" x="7" y="6">
<path clip-rule="evenodd" d="M30.4535 28H32.0435L42.0235 38L39.0435 40.98L29.0435 31V29.42L28.4935 28.87C26.2235 30.82 23.2735 32 20.0435 32C12.8635 32 7.04348 26.18 7.04348 19C7.04348 11.82 12.8635 6 20.0435 6C27.2235 6 33.0435 11.82 33.0435 19C33.0435 22.23 31.8635 25.18 29.9035 27.45L30.4535 28ZM11.0435 18.9999C11.0435 23.9699 15.0735 27.9999 20.0435 27.9999C25.0135 27.9999 29.0435 23.9699 29.0435 18.9999C29.0435 14.0299 25.0135 9.99993 20.0435 9.99993C15.0735 9.99993 11.0435 14.0299 11.0435 18.9999Z" fill="white" fill-rule="evenodd"/>
</mask>
<g mask="url(#uid_8)">
<rect fill="white" height="48" width="48"/>
</g>
</g></g><g id="s20-392" transform="translate(20, 392.0)"><g transform="translate(-0.0, -0.0)">
<path d="M18.2647 41C32.9818 41 41.0314 28.6876 41.0314 18.0103C41.0314 17.6606 41.0314 17.3125 41.008 16.9659C42.5739 15.8221 43.9257 14.4059 45 12.7835C43.5397 13.4369 41.9905 13.8655 40.4042 14.0548C42.0746 13.045 43.3248 11.4568 43.922 9.58569C42.3514 10.5269 40.633 11.1901 38.8411 11.5469C37.6347 10.2515 36.0391 9.39377 34.3013 9.10635C32.5635 8.81893 30.7803 9.11789 29.2277 9.95695C27.6751 10.796 26.4396 12.1284 25.7125 13.748C24.9853 15.3675 24.807 17.1839 25.2052 18.9161C22.0239 18.7551 18.9118 17.9203 16.0708 16.4659C13.2298 15.0115 10.7234 12.9701 8.7144 10.4742C7.69118 12.2529 7.37779 14.3586 7.83804 16.3625C8.29828 18.3663 9.49756 20.1178 11.1917 21.2601C9.91832 21.222 8.67272 20.8751 7.56 20.2488C7.56 20.2819 7.56 20.3165 7.56 20.3512C7.56051 22.2167 8.20001 24.0245 9.37004 25.4682C10.5401 26.9118 12.1686 27.9023 13.9794 28.2717C12.8014 28.5961 11.5654 28.6435 10.3664 28.4103C10.8777 30.0158 11.8732 31.4198 13.2136 32.4259C14.5539 33.4319 16.1722 33.9898 17.842 34.0215C15.0086 36.2701 11.5085 37.4908 7.90476 37.4871C7.26813 37.4859 6.63212 37.447 6 37.3705C9.65919 39.7418 13.9169 40.9996 18.2647 40.9937" fill="#1DA1F2"/>
</g></g></svg>