<?xml version="1.0" encoding="utf-8"?>
<!-- Generator: Adobe Illustrator 21.0.2, SVG Export Plug-In . SVG Version: 6.00 Build 0)  -->
<svg version="1.1" id="Layer_1" xmlns="http://www.w3.org/2000/svg" xmlns:xlink="http://www.w3.org/1999/xlink" x="0px" y="0px"
	 viewBox="0 0 796 1444" style="enable-background:new 0 0 796 1444;" xml:space="preserve">
<style type="text/css">
	.st0{clip-path:url(#SVGID_2_);}
	.st1{fill:#B03A23;}
	.st2{fill:#C1272D;}
</style>
<title>LosePattern</title>
<g id="Layer_2">
	<g id="LosePattern">
		<g>
			<defs>
				<path id="SVGID_1_" d="M31.2,0h733.6C782,0,796,14,796,31.2v1381.6c0,17.2-14,31.2-31.2,31.2H31.2C14,1444,0,1430,0,1412.8V31.2
					C0,14,14,0,31.2,0z"/>
			</defs>
			<clipPath id="SVGID_2_">
				<use xlink:href="#SVGID_1_"  style="overflow:visible;"/>
			</clipPath>
			<g class="st0">
				
					<ellipse transform="matrix(0.9978 -6.557729e-02 6.557729e-02 0.9978 -13.0721 5.748)" class="st1" cx="81" cy="202" rx="17" ry="17"/>
				
					<ellipse transform="matrix(0.867 -0.4983 0.4983 0.867 -59.5336 88.3507)" class="st1" cx="135.8" cy="155.7" rx="17.1" ry="17.1"/>
				<polyline class="st2" points="89,293 188.6,169 195,161 				"/>
				<path class="st1" d="M97.5,301.5l92.1-114.7l13.9-17.3c4.1-5,4.9-12,0-17c-4.2-4.2-12.9-5.1-17,0L94.4,267.3l-13.8,17.2
					c-4.1,5-4.9,12,0,17C84.7,305.7,93.4,306.6,97.5,301.5L97.5,301.5z"/>
				
					<ellipse transform="matrix(0.6696 -0.7427 0.7427 0.6696 63.3643 593.1166)" class="st1" cx="698.4" cy="225.3" rx="17" ry="17"/>
				
					<ellipse transform="matrix(0.2723 -0.9622 0.9622 0.2723 337.4879 909.156)" class="st1" cx="769.8" cy="231.5" rx="17" ry="17"/>
				<polyline class="st2" points="638.7,294.5 797.1,279.4 807.3,278.5 				"/>
				<path class="st1" d="M638.7,306.5l146.5-13.9l22-2.1c6.5-0.6,12-5.1,12-12c0-6-5.5-12.6-12-12l-146.5,14l-22,2.1
					c-6.5,0.6-12,5.1-12,12C626.7,300.5,632.2,307.1,638.7,306.5z"/>
				
					<ellipse transform="matrix(0.5051 -0.863 0.863 0.5051 133.8853 460.7548)" class="st1" cx="468.7" cy="113.6" rx="17" ry="17"/>
				
					<ellipse transform="matrix(7.149742e-02 -0.9974 0.9974 7.149742e-02 258.8088 647.6049)" class="st1" cx="477.2" cy="184.8" rx="17" ry="17"/>
				<polyline class="st2" points="388.9,69.2 435.8,221.2 438.8,231 				"/>
				<path class="st1" d="M377.3,72.4l43.4,140.6l6.5,21.1c4.5,14.7,27.7,8.4,23.1-6.4L407,87.2l-6.5-21.1
					C395.9,51.3,372.8,57.6,377.3,72.4L377.3,72.4z"/>
				
					<ellipse transform="matrix(0.1021 -0.9948 0.9948 0.1021 -542.1652 560.7114)" class="st1" cx="39.5" cy="580.7" rx="17" ry="17"/>
				
					<ellipse transform="matrix(0.9374 -0.3482 0.3482 0.9374 -180.7655 33.3224)" class="st1" cx="2.3" cy="519.5" rx="17" ry="17"/>
				<polyline class="st2" points="130.6,588 24.9,469.1 18.1,461.5 				"/>
				<path class="st1" d="M139,579.6l-97.7-110L26.6,453c-4.3-4.9-12.6-4.4-17,0c-4.8,4.8-4.3,12.1,0,17l97.8,110l14.7,16.5
					c4.3,4.8,12.6,4.4,17,0C143.9,591.7,143.4,584.4,139,579.6L139,579.6z"/>
				
					<ellipse transform="matrix(0.9978 -6.557729e-02 6.557729e-02 0.9978 -41.4501 41.1459)" class="st1" cx="606" cy="652" rx="17" ry="17"/>
				
					<ellipse transform="matrix(0.867 -0.4983 0.4983 0.867 -214.5527 411.0716)" class="st1" cx="662.8" cy="607.5" rx="17.1" ry="17.1"/>
				<polyline class="st2" points="614,743 713.6,619 720,611 				"/>
				<path class="st1" d="M622.5,751.5l92.1-114.7l13.9-17.3c4-5,4.9-12,0-17c-4.2-4.2-12.9-5.1-17,0l-92.1,114.8l-13.8,17.2
					c-4,5-4.9,12,0,17C609.7,755.7,618.4,756.6,622.5,751.5L622.5,751.5z"/>
				
					<ellipse transform="matrix(0.4904 -0.8715 0.8715 0.4904 -547.01 725.9588)" class="st1" cx="347.3" cy="830.7" rx="17" ry="17"/>
				
					<ellipse transform="matrix(5.442741e-02 -0.9985 0.9985 5.442741e-02 -424.2361 1193.8843)" class="st1" cx="418.2" cy="820.9" rx="17" ry="17"/>
				<polyline class="st2" points="304.3,911.3 455.4,861.8 465.2,858.7 				"/>
				<path class="st1" d="M307.4,922.8l139.9-45.7l21-6.9c6.2-2,10.2-8.3,8.4-14.8c-1.7-6-8.6-10.4-14.8-8.4L322,892.8l-21,6.9
					c-6.2,2-10.2,8.3-8.4,14.8C294.3,920.5,301.2,924.9,307.4,922.8L307.4,922.8z"/>
				
					<ellipse transform="matrix(0.9978 -6.557729e-02 6.557729e-02 0.9978 -58.8021 4.5601)" class="st1" cx="40.1" cy="898" rx="17" ry="17"/>
				
					<ellipse transform="matrix(0.867 -0.4983 0.4983 0.867 -413.1882 160.7666)" class="st1" cx="94.6" cy="854.5" rx="17.1" ry="17.1"/>
				<polyline class="st2" points="48,989 147.6,865 154,857 				"/>
				<path class="st1" d="M56.5,997.5l92.1-114.7l13.9-17.3c4.1-5,4.9-12,0-17c-4.2-4.2-12.9-5.1-17,0L53.4,963.3l-13.8,17.2
					c-4,5-4.9,12,0,17C43.7,1001.7,52.4,1002.6,56.5,997.5L56.5,997.5z"/>
				
					<ellipse transform="matrix(0.9954 -9.601948e-02 9.601948e-02 0.9954 -99.3697 80.3789)" class="st1" cx="785.5" cy="1072.7" rx="17" ry="17"/>
				
					<ellipse transform="matrix(0.8504 -0.5262 0.5262 0.8504 -467.415 607.2893)" class="st1" cx="834" cy="1125.4" rx="17" ry="17"/>
				<polyline class="st2" points="694.8,1083.5 821.8,1179.2 830,1185.4 				"/>
				<path class="st1" d="M688.7,1093.8l117.5,88.6l17.7,13.3c5.2,3.9,13.4,0.8,16.4-4.3c3.6-6.2,0.9-12.5-4.3-16.4l-117.5-88.6
					l-17.7-13.3c-5.2-3.9-13.4-0.8-16.4,4.3C680.8,1083.6,683.5,1089.9,688.7,1093.8L688.7,1093.8z"/>
				
					<ellipse transform="matrix(0.244 -0.9698 0.9698 0.244 -1243.755 1226.1438)" class="st1" cx="164.5" cy="1410.8" rx="17" ry="17"/>
				<ellipse transform="matrix(0.9777 -0.21 0.21 0.9777 -285.1906 79.1941)" class="st1" cx="230.4" cy="1382.8" rx="17" ry="17"/>
				<polyline class="st2" points="144.2,1499.8 277,1412.4 285.6,1406.7 				"/>
				<path class="st1" d="M150.2,1510.2l122.9-80.9l18.5-12.2c5.4-3.6,7.7-10.6,4.3-16.4c-3.1-5.4-11-7.9-16.4-4.3l-122.9,80.9
					l-18.5,12.2c-5.4,3.6-7.7,10.6-4.3,16.4C137,1511.2,144.8,1513.7,150.2,1510.2L150.2,1510.2z"/>
				
					<ellipse transform="matrix(0.9978 -6.557729e-02 6.557729e-02 0.9978 -76.0699 26.463)" class="st1" cx="365.1" cy="1172" rx="17" ry="17"/>
				
					<ellipse transform="matrix(0.867 -0.4983 0.4983 0.867 -506.8691 359.9348)" class="st1" cx="420.9" cy="1129.6" rx="17.1" ry="17.1"/>
				<polyline class="st2" points="373,1263 472.6,1139 479,1131 				"/>
				<path class="st1" d="M381.5,1271.5l92.1-114.7l13.9-17.3c4-5,4.9-12,0-17c-4.2-4.2-12.9-5.1-17,0l-92.2,114.8l-13.8,17.2
					c-4,5-4.9,12,0,17C368.7,1275.7,377.4,1276.6,381.5,1271.5z"/>
			</g>
		</g>
	</g>
</g>
</svg>
