
<svg xmlns="http://www.w3.org/2000/svg" xmlns:xlink="http://www.w3.org/1999/xlink" viewBox="0 0 1082 1921"><defs><style>.cls-1{fill:#e84a3a;}.cls-2{fill:#ed5b54;}.cls-3{fill:#ffe862;}.cls-4{fill:#fbd744;}.cls-5{fill:none;stroke:#fdd37d;stroke-miterlimit:10;}</style></defs><title>VerticalBG_1</title><g id="Layer_2" data-name="Layer 2"><g id="BG"><image width="2250" height="4000" transform="translate(1 0) scale(0.48)" xlink:href="../OpponentSymbolTest1.jpg"/><polygon class="cls-1" points="1 1548 1 1921 1081 1921 1080 1724 1 1548"/><polygon class="cls-2" points="1 1028 1081 500 1080 1724 1 1548 1 1028"/><path class="cls-3" d="M2,1029V1H1082V501Z" transform="translate(0 0)"/><polygon class="cls-4" points="1 323 97 373 1 454 1 323"/><polygon class="cls-4" points="59 609 117 753 231 649 59 609"/><polygon class="cls-4" points="1 767 97 823 0 903 1 767"/><polygon class="cls-4" points="201 2 261 52 309 2 201 2"/><polygon class="cls-4" points="921 2 937 27 979 2 921 2"/><polygon class="cls-4" points="1031 293 1080 348 1080 285 1031 293"/><polygon class="cls-4" points="659 215 783 155 783 283 659 215"/><circle class="cls-4" cx="32" cy="264" r="19"/><circle class="cls-4" cx="383.5" cy="69.5" r="26.5"/><circle class="cls-4" cx="90.5" cy="560.5" r="23.5"/><path class="cls-5" d="M29,675.5A20.51,20.51,0,0,1,1,694.58l-.48-38A20.51,20.51,0,0,1,29,675.5Z" transform="translate(0 0)"/><circle class="cls-4" cx="119.5" cy="899.5" r="22.5"/><path class="cls-4" d="M1078,469s-1.3-.2-2.87-.57a21,21,0,0,1,.31-40.94A40.18,40.18,0,0,1,1080,427Z" transform="translate(0 0)"/><circle class="cls-4" cx="754.5" cy="48.5" r="21.5"/><polygon class="cls-4" points="469 469 410 609 575 595 469 469"/><polygon class="cls-4" points="285 173 201 225 297 283 285 173"/><polygon class="cls-4" points="905 388 847 446 905 454 905 388"/><circle class="cls-4" cx="250.5" cy="360.5" r="19.5"/><circle class="cls-4" cx="942" cy="224" r="21"/><circle class="cls-4" cx="589.5" cy="394.5" r="14.5"/><circle class="cls-4" cx="478" cy="162" r="21"/></g></g></svg>