<?xml version="1.0" encoding="utf-8"?>
<!-- Generator: Adobe Illustrator 21.0.2, SVG Export Plug-In . SVG Version: 6.00 Build 0)  -->
<svg version="1.1" id="Layer_1" xmlns="http://www.w3.org/2000/svg" xmlns:xlink="http://www.w3.org/1999/xlink" x="0px" y="0px"
	 viewBox="0 0 796 1444" style="enable-background:new 0 0 796 1444;" xml:space="preserve">
<style type="text/css">
	.st0{clip-path:url(#SVGID_2_);}
	.st1{fill:#F8D282;}
</style>
<title>WinPattern</title>
<g id="Layer_2">
	<g id="WinPattern">
		<g>
			<defs>
				<path id="SVGID_1_" d="M31.2,0h733.6C782,0,796,14,796,31.2v1381.6c0,17.2-14,31.2-31.2,31.2H31.2C14,1444,0,1430,0,1412.8V31.2
					C0,14,14,0,31.2,0z"/>
			</defs>
			<clipPath id="SVGID_2_">
				<use xlink:href="#SVGID_1_"  style="overflow:visible;"/>
			</clipPath>
			<g class="st0">
				<circle class="st1" cx="653.5" cy="252.5" r="14.5"/>
				<circle class="st1" cx="714" cy="217" r="15"/>
				<path class="st1" d="M776,247c-22-22-43,9-60,20s-44,7-65,26s-5,44,0,52s26,36,69,19s59-59,59-59S798,269,776,247z"/>
				<circle class="st1" cx="52.5" cy="419.5" r="14.5"/>
				<circle class="st1" cx="113" cy="384" r="15"/>
				<path class="st1" d="M175,414c-22-22-43,9-60,20s-44,7-65,26s-5,44,0,52s26,36,69,19s59-59,59-59S197,436,175,414z"/>
				
					<ellipse transform="matrix(0.3723 -0.9281 0.9281 0.3723 -62.1373 857.8467)" class="st1" cx="603.2" cy="474.9" rx="14.5" ry="14.5"/>
				
					<ellipse transform="matrix(0.3723 -0.9281 0.9281 0.3723 -8.9119 915.678)" class="st1" cx="672.5" cy="464.4" rx="15" ry="15"/>
				<path class="st1" d="M718.9,515.3c-12.2-28.6-43.3-7.6-63.1-3.8c-19.9,3.9-43.4-9.9-70-0.1c-26.6,9.8-21,39-19.4,48.3
					s10.7,43.1,57,43.3s76.7-32.8,76.7-32.8S731.1,543.9,718.9,515.3z"/>
				
					<ellipse transform="matrix(0.996 -8.976348e-02 8.976348e-02 0.996 -6.0465 5.4673)" class="st1" cx="57.8" cy="70" rx="14.5" ry="14.5"/>
				
					<ellipse transform="matrix(0.996 -8.976348e-02 8.976348e-02 0.996 -2.1549 10.4253)" class="st1" cx="114.8" cy="29.2" rx="15" ry="15"/>
				<path class="st1" d="M179.3,53.5c-23.9-19.9-42,12.8-58,25.3s-43.2,10.9-62.4,31.7s-1,44.3,4.7,51.8S92.7,195.8,134,175
					s53.5-64,53.5-64S203.2,73.4,179.3,53.5z"/>
				
					<ellipse transform="matrix(0.4962 -0.8682 0.8682 0.4962 -313.8011 66.6781)" class="st1" cx="-99.4" cy="303.7" rx="14.5" ry="14.5"/>
				
					<ellipse transform="matrix(0.4962 -0.8682 0.8682 0.4962 -253.3061 30.6497)" class="st1" cx="-100.2" cy="233.6" rx="15" ry="15"/>
				<path class="st1" d="M-43.4,194.6c-30,8.2-13.5,41.8-12.4,62s-15.8,41.7-9.7,69.4c6.1,27.7,35.7,26.2,45.2,25.8
					s44.2-4.7,50.7-50.5s-22-80.5-22-80.5S-13.4,186.4-43.4,194.6z"/>
				
					<ellipse transform="matrix(0.989 -0.1482 0.1482 0.989 -116.8032 131.3668)" class="st1" cx="823.4" cy="849.7" rx="14.5" ry="14.5"/>
				
					<ellipse transform="matrix(0.9887 -0.1498 0.1498 0.9887 -125.0842 125.6348)" class="st1" cx="771.4" cy="893.1" rx="15" ry="15"/>
				<path class="st1" d="M703,873.3c25,18.5,41.2-15.3,56.4-28.7s42.5-13.4,60.4-35.3s-1.6-44.3-7.7-51.4s-31-31.8-71-8.6
					s-49.6,67.1-49.6,67.1S678,854.8,703,873.3z"/>
				
					<ellipse transform="matrix(0.1592 -0.9872 0.9872 0.1592 -609.6147 871.8773)" class="st1" cx="207.1" cy="793.8" rx="14.5" ry="14.5"/>
				
					<ellipse transform="matrix(0.1592 -0.9872 0.9872 0.1592 -689.6674 828.7049)" class="st1" cx="141.7" cy="819.2" rx="15" ry="15"/>
				<path class="st1" d="M85.3,779.8c18.2,25.2,43.9-2,62.4-10.2c18.5-8.2,44.5,0.1,68.3-15.3s11.9-42.6,8.3-51.3
					s-19.9-39.7-65.1-29.8s-67.6,48.8-67.6,48.8S67,754.6,85.3,779.8z"/>
				
					<ellipse transform="matrix(0.8942 -0.4478 0.4478 0.8942 -436.6969 120.2247)" class="st1" cx="35.9" cy="983.8" rx="14.5" ry="14.5"/>
				
					<ellipse transform="matrix(0.8942 -0.4478 0.4478 0.8942 -447.5739 150.6126)" class="st1" cx="94.8" cy="1022" rx="15" ry="15"/>
				<path class="st1" d="M95.7,1090.9c9.8-29.5-27.3-34.4-44.8-44.7S25,1010-1.4,999.7s-41.6,15.2-46.5,23.3s-20.6,39.4,13.9,70.2
					s79.2,26.3,79.2,26.3S85.9,1120.4,95.7,1090.9z"/>
				<circle class="st1" cx="608.5" cy="1128.5" r="14.5"/>
				<circle class="st1" cx="669" cy="1093" r="15"/>
				<path class="st1" d="M731,1123c-22-22-43,9-60,20s-44,7-65,26s-5,44,0,52s26,36,69,19s59-59,59-59S753,1145,731,1123z"/>
				
					<ellipse transform="matrix(0.7918 -0.6108 0.6108 0.7918 -900.5295 410.4471)" class="st1" cx="151.7" cy="1526" rx="14.5" ry="14.5"/>
				
					<ellipse transform="matrix(0.7915 -0.6112 0.6112 0.7915 -897.3684 364.1513)" class="st1" cx="85" cy="1497.3" rx="15" ry="15"/>
				<path class="st1" d="M72.6,1432.3c-4,30.9,33.4,28.6,52.5,35.3c19.1,6.7,32.4,30.6,60.3,35.6s37.9-22.9,41.2-31.8
					s12.6-42.6-27.1-66.2s-82.8-10.7-82.8-10.7S76.6,1401.4,72.6,1432.3z"/>
				
					<ellipse transform="matrix(0.9198 -0.3925 0.3925 0.9198 -528.8066 387.5375)" class="st1" cx="683.3" cy="1487" rx="14.5" ry="14.5"/>
				
					<ellipse transform="matrix(0.9198 -0.3925 0.3925 0.9198 -554.2899 375.6881)" class="st1" cx="641.6" cy="1543.4" rx="15" ry="15"/>
				<path class="st1" d="M572.9,1540.1c28.9,11.6,36-25.2,47.3-41.9s37.7-23.7,49.6-49.4s-12.7-42.4-20.4-47.8s-38-22.9-70.9,9.6
					s-31.1,77.4-31.1,77.4S544,1528.5,572.9,1540.1z"/>
			</g>
		</g>
	</g>
</g>
</svg>
